<?xml version="1.0" encoding="UTF-8" standalone="no"?>
<svg width="552px" height="155px" viewBox="0 0 552 155" version="1.1" xmlns="http://www.w3.org/2000/svg" xmlns:xlink="http://www.w3.org/1999/xlink">
    <!-- Generator: Sketch 43.2 (39069) - http://www.bohemiancoding.com/sketch -->
    <title>Page 1</title>
    <desc>Created with Sketch.</desc>
    <defs>
        <polygon id="path-1" points="551.174486 12.0072789 551.174486 0.332828125 0 0.332828125 0 12.0072789 0 23.6817297 551.174486 23.6817297"></polygon>
    </defs>
    <g id="Page-1" stroke="none" stroke-width="1" fill="none" fill-rule="evenodd">
        <g id="joy-fashion-trend-nyito" transform="translate(-209.000000, -214.000000)">
            <g id="Page-1" transform="translate(209.000000, 214.000000)">
                <g id="Group-3" transform="translate(0.000000, 0.152541)">
                    <mask id="mask-2" fill="white">
                        <use xlink:href="#path-1"></use>
                    </mask>
                    <g id="Clip-2"></g>
                    <path d="M13.9989189,18.7626672 L8.35459459,1.72233906 L5.69405405,1.72233906 L0,18.7626672 L2.06378378,18.7626672 L3.70486486,13.5206359 L10.0702703,13.5206359 L11.6864865,18.7626672 L13.9989189,18.7626672 Z M9.54810811,11.8585891 L4.25189189,11.8585891 L6.9372973,3.51108906 L9.54810811,11.8585891 Z M24.5391351,15.8559484 L24.5391351,1.72233906 L22.5051892,1.72233906 L22.5051892,15.9056359 C22.5051892,17.6446984 22.4057297,18.4396984 22.0824865,19.0111047 C21.7095135,19.6570422 20.9635676,20.3029797 20.0435676,20.6756359 L21.0381622,21.9426672 C22.356,21.4954797 23.372973,20.7253234 23.92,19.7564172 C24.4396757,18.8371984 24.5391351,18.0173547 24.5391351,15.8559484 L24.5391351,15.8559484 Z M42.2180541,10.5170266 C42.2180541,7.78172969 41.7456216,5.79422969 40.6789189,4.20422969 C39.8583784,2.98688594 38.267027,1.42421406 35.3081081,1.42421406 C31.1034595,1.42421406 28.52,4.75079219 28.52,10.1692141 C28.52,13.0759328 29.2162162,15.3864016 30.5564324,16.9267141 C31.7002162,18.2434328 33.3189189,19.0856359 35.4075676,19.0856359 C37.172973,19.0856359 38.4659459,18.5887609 39.7340541,17.4484328 C41.4745946,15.8584328 42.2180541,13.7964016 42.2180541,10.5170266 L42.2180541,10.5170266 Z M39.932973,10.8151516 C39.932973,13.6224953 39.5351351,14.9889016 38.6897297,16.0571828 C37.9189189,17.0260891 36.8994595,17.5229641 35.507027,17.5229641 C34.1145946,17.5229641 32.5207568,16.7776516 31.8742703,15.6845266 C31.2029189,14.5417141 30.7802162,12.3057766 30.7802162,9.74687031 C30.7802162,7.63266719 31.0537297,6.16688594 31.6504865,5.04891719 C32.296973,3.83157344 33.7167568,3.06141719 35.3081081,3.06141719 C37.2724324,3.06141719 38.5156757,4.12969844 39.1124324,5.39672969 C39.6843243,6.58922969 39.932973,8.30344844 39.932973,10.8151516 L39.932973,10.8151516 Z M56.3661622,1.72233906 L54.0288649,1.72233906 L50.7467027,8.23140156 C50.3016216,9.10093281 49.9037838,9.94562031 49.8291892,10.1443703 C49.5308108,9.49843281 49.2821622,8.87733906 48.9589189,8.23140156 L45.728973,1.72233906 L43.2176216,1.72233906 L48.7127568,12.0076516 L48.7127568,18.7626672 L50.8212973,18.7626672 L50.8212973,12.1293859 L56.3661622,1.72233906 Z M79.5402162,18.7626672 L79.5402162,9.42141719 C79.5402162,7.45876094 78.2745946,6.06999531 76.4345946,6.06999531 C75.1664865,6.06999531 73.6497297,6.86499531 72.4537297,8.12954219 C72.0086486,6.81530781 70.7902703,6.06999531 69.5718919,6.06999531 C68.3037838,6.06999531 66.7845405,7.01405781 65.964,7.93079219 C65.964,7.16312031 65.6158919,6.29358906 65.5189189,6.09483906 L63.6316757,6.54202656 C63.7311351,6.71593281 64.0792432,7.58546406 64.0792432,9.17546406 L64.0792432,18.7626672 L65.9391351,18.7626672 L65.9391351,9.52327656 C67.2345946,8.35313594 68.1545946,7.88110469 69.0994595,7.88110469 C69.6713514,7.88110469 70.0691892,8.03016719 70.3675676,8.37797969 C70.6435676,8.72579219 70.7181622,9.22266719 70.7181622,9.96797969 L70.7181622,18.7626672 L72.6775135,18.7626672 L72.6775135,9.71954219 C73.972973,8.52704219 74.8432432,7.80657344 75.9621622,7.80657344 C77.0064865,7.80657344 77.556,8.42766719 77.556,9.62016719 L77.556,18.7626672 L79.5402162,18.7626672 Z M93.3899459,17.8459328 C92.4699459,17.3490578 92.3456216,16.8273391 92.3953514,14.8149953 L92.4948108,10.7406203 C92.5196757,9.62265156 92.4948108,8.67610469 92.2212973,8.00532344 C91.7016216,6.74077656 90.5105946,6.06999531 88.7924324,6.06999531 C87.0021622,6.06999531 85.2342703,6.64140156 83.5956757,7.73204219 L84.5654054,9.12577656 C85.3585946,8.40282344 87.1264865,7.65751094 88.5189189,7.65751094 C89.2897297,7.65751094 89.787027,7.88110469 90.1848649,8.32829219 C90.532973,8.72579219 90.5827027,9.17546406 90.5827027,10.2685891 L90.5827027,11.1381203 C90.1848649,11.1132766 89.9859459,11.1132766 89.7124324,11.1132766 C85.5575135,11.1132766 83.1505946,12.7504797 83.1505946,15.5603078 C83.1505946,17.2248391 84.0681081,19.0856359 87.1264865,19.0856359 C88.5437838,19.0856359 89.5135135,18.6136047 90.707027,17.4235891 C90.9308108,18.2906359 91.5524324,18.9614172 92.3953514,19.2346984 L93.3899459,17.8459328 Z M90.532973,12.4771984 L90.4608649,15.7068859 C89.8864865,16.8770266 88.7178378,17.6471828 87.4497297,17.6471828 C86.0299459,17.6471828 85.3088649,16.8521828 85.3088649,15.3864016 C85.3088649,13.4957922 86.4302703,12.4275109 89.5632432,12.4275109 C89.8367568,12.4275109 90.2868108,12.4523547 90.532973,12.4771984 Z M107.587784,7.48360469 L106.39427,6.29358906 C105.797514,6.69108906 105.325081,6.84015156 104.681081,6.84015156 C103.164324,6.84015156 102.791351,6.14452656 100.901622,6.14452656 C98.1888649,6.14452656 96.3264865,7.83141719 96.3264865,10.3182766 C96.3264865,11.9579641 97.4454054,13.3740578 99.1088649,13.8932922 C97.4205405,14.4150109 96.8735135,15.0137453 96.8735135,16.0074953 C96.8735135,17.1254641 97.7437838,17.7937609 99.2083243,17.7937609 C99.6086486,17.7937609 100.628108,17.7689172 101.125405,17.7689172 C102.343784,17.7689172 103.08973,17.8931359 103.562162,18.2161047 C104.00973,18.5142297 104.233514,19.0359484 104.233514,19.7092141 C104.233514,21.2495266 103.139459,21.8706203 101.224865,21.8706203 C100.23027,21.8706203 99.3077838,21.6470266 98.711027,21.2992141 C98.2634595,21.0259328 97.9899459,20.5042141 97.9899459,19.8582766 C97.9899459,19.4607766 98.164,19.0111047 98.3380541,18.7378234 L96.3016216,18.9117297 C96.1275676,19.4086047 96.052973,19.7837453 96.052973,20.2309328 C96.052973,21.9948391 97.5448649,23.3836047 101.423784,23.3836047 C104.432432,23.3836047 106.344541,22.1687453 106.344541,19.4856203 C106.344541,18.4148547 105.946703,17.5453234 104.976973,16.8770266 C104.233514,16.3553078 103.437838,16.1814016 101.995676,16.1814016 L100.006486,16.1814016 C99.3823784,16.1814016 99.0094054,15.9578078 99.0094054,15.5851516 C99.0094054,15.1628078 99.5812973,14.7379797 101.24973,14.1417297 C102.144865,14.1417297 102.940541,13.9926672 103.562162,13.5951672 C104.705946,12.8771828 105.399676,11.5853078 105.399676,10.1940578 C105.399676,9.39657344 105.151027,8.70094844 104.656216,8.07985469 C104.877514,8.17922969 105.175892,8.22891719 105.499135,8.22891719 C106.245081,8.22891719 106.816973,8.03016719 107.587784,7.48360469 L107.587784,7.48360469 Z M103.139459,10.2189016 C103.139459,11.8834328 102.393514,12.7529641 100.901622,12.7529641 C99.3326486,12.7529641 98.5121081,11.8834328 98.5121081,10.2934328 C98.5121081,8.57672969 99.3077838,7.73204219 100.851892,7.73204219 C102.492973,7.73204219 103.139459,8.52704219 103.139459,10.2189016 L103.139459,10.2189016 Z M119.075351,17.8459328 C118.155351,17.3490578 118.031027,16.8273391 118.080757,14.8149953 L118.180216,10.7406203 C118.205081,9.62265156 118.180216,8.67610469 117.906703,8.00532344 C117.387027,6.74077656 116.193514,6.06999531 114.477838,6.06999531 C112.687568,6.06999531 110.919676,6.64140156 109.281081,7.73204219 L110.250811,9.12577656 C111.044,8.40282344 112.811892,7.65751094 114.204324,7.65751094 C114.975135,7.65751094 115.472432,7.88110469 115.87027,8.32829219 C116.218378,8.72579219 116.268108,9.17546406 116.268108,10.2685891 L116.268108,11.1381203 C115.87027,11.1132766 115.671351,11.1132766 115.397838,11.1132766 C111.242919,11.1132766 108.833514,12.7504797 108.833514,15.5603078 C108.833514,17.2248391 109.753514,19.0856359 112.811892,19.0856359 C114.229189,19.0856359 115.198919,18.6136047 116.392432,17.4235891 C116.616216,18.2906359 117.237838,18.9614172 118.080757,19.2346984 L119.075351,17.8459328 Z M116.218378,12.4771984 L116.143784,15.7068859 C115.571892,16.8770266 114.403243,17.6471828 113.135135,17.6471828 C111.715351,17.6471828 110.99427,16.8521828 110.99427,15.3864016 C110.99427,13.4957922 112.113189,12.4275109 115.248649,12.4275109 C115.522162,12.4275109 115.96973,12.4523547 116.218378,12.4771984 Z M130.789189,17.2745266 L123.951351,17.2745266 L130.391351,7.98047969 L130.391351,6.39296406 L122.136216,6.39296406 L122.136216,7.93079219 L128.352432,7.93079219 L121.614054,17.2745266 L121.614054,18.7626672 L129.869189,18.7626672 L130.789189,17.2745266 Z M136.033189,18.7626672 L136.033189,6.11968281 L134.021622,6.44265156 L134.021622,18.7626672 L136.033189,18.7626672 Z M136.580216,2.56702656 C136.580216,1.72233906 135.908865,1.05155781 135.065946,1.05155781 C134.220541,1.05155781 133.549189,1.74718281 133.549189,2.59187031 C133.549189,3.41171406 134.220541,4.08249531 135.065946,4.08249531 C135.908865,4.08249531 136.580216,3.41171406 136.580216,2.56702656 L136.580216,2.56702656 Z M149.858054,18.7626672 L149.858054,9.37172969 C149.858054,8.87485469 149.758595,8.37797969 149.559676,7.93079219 C149.064865,6.84015156 147.871351,6.11968281 146.528649,6.11968281 C145.210811,6.11968281 143.915351,6.74077656 142.622378,8.03016719 C142.622378,7.13827656 142.27427,6.26874531 142.174811,6.09483906 L140.287568,6.61655781 C140.387027,6.79046406 140.76,7.65999531 140.76,9.22515156 L140.76,18.7626672 L142.647243,18.7626672 L142.647243,9.54812031 C143.542378,8.60157344 145.086486,7.80657344 146.081081,7.80657344 C146.652973,7.80657344 147.175135,8.00532344 147.448649,8.32829219 C147.796757,8.75063594 147.896216,9.07360469 147.896216,10.3903234 L147.896216,18.7626672 L149.858054,18.7626672 Z M169.526162,12.8995422 L169.526162,12.6262609 C169.526162,9.67233906 169.178054,8.50219844 168.111351,7.40907344 C167.265946,6.54202656 166.097297,6.06999531 164.754595,6.06999531 C163.260216,6.06999531 162.041838,6.61655781 161.047243,7.78172969 C160.005405,9.02391719 159.557838,10.3679641 159.557838,12.4523547 C159.557838,16.5540578 161.619135,19.0359484 165.052973,19.0359484 C166.644324,19.0359484 168.136216,18.4893859 169.227784,17.4981203 L168.484324,16.2559328 C167.614054,17.0509328 166.644324,17.4235891 165.450811,17.4235891 C164.207568,17.4235891 163.061297,16.9764016 162.365081,15.9081203 C161.942378,15.2621828 161.793189,14.3653234 161.793189,13.1976672 L161.793189,12.8995422 L169.526162,12.8995422 Z M167.464865,11.4362453 L161.793189,11.4362453 C161.892649,8.87485469 162.887243,7.58297969 164.655135,7.58297969 C165.6,7.58297969 166.47027,8.00532344 166.892973,8.67610469 C167.265946,9.27483906 167.44,10.0946828 167.464865,11.4362453 L167.464865,11.4362453 Z M168.136216,2.24405781 L167.067027,0.331089062 L161.92,3.55829219 L162.566486,4.72594844 L168.136216,2.24405781 Z M181.361838,15.0882766 C181.361838,13.2498391 180.295135,12.1070266 178.057297,11.6349953 L176.416216,11.2846984 C175.095892,11.0114172 174.623459,10.4400109 174.623459,9.49594844 C174.623459,8.27860469 175.543459,7.45876094 176.963243,7.45876094 C178.057297,7.45876094 178.977297,7.83141719 180.071351,8.35313594 L180.789946,6.91219844 C179.748108,6.31843281 178.305946,5.92093281 177.012973,5.92093281 C174.424541,5.92093281 172.611892,7.48360469 172.611892,9.71954219 C172.611892,11.4337609 173.705946,12.7032766 175.742378,13.1256203 L177.286486,13.4485891 C178.703784,13.7467141 179.325405,14.3678078 179.325405,15.4857766 C179.325405,16.8024953 178.330811,17.6223391 176.814054,17.6223391 C175.444,17.6223391 174.151027,17.2248391 172.885405,16.4546828 L172.139459,17.8956203 C173.407568,18.6632922 175.120757,19.1353234 176.68973,19.1353234 C179.474595,19.1353234 181.361838,17.4981203 181.361838,15.0882766 L181.361838,15.0882766 Z M199.935892,17.8459328 C199.015892,17.3490578 198.891568,16.8273391 198.941297,14.8149953 L199.040757,10.7406203 C199.065622,9.62265156 199.040757,8.67610469 198.767243,8.00532344 C198.245081,6.74077656 197.054054,6.06999531 195.338378,6.06999531 C193.545622,6.06999531 191.780216,6.64140156 190.141622,7.73204219 L191.108865,9.12577656 C191.904541,8.40282344 193.669946,7.65751094 195.064865,7.65751094 C195.835676,7.65751094 196.332973,7.88110469 196.730811,8.32829219 C197.078919,8.72579219 197.128649,9.17546406 197.128649,10.2685891 L197.128649,11.1381203 C196.730811,11.1132766 196.531892,11.1132766 196.258378,11.1132766 C192.103459,11.1132766 189.694054,12.7504797 189.694054,15.5603078 C189.694054,17.2248391 190.614054,19.0856359 193.669946,19.0856359 C195.08973,19.0856359 196.059459,18.6136047 197.252973,17.4235891 C197.476757,18.2906359 198.098378,18.9614172 198.941297,19.2346984 L199.935892,17.8459328 Z M197.078919,12.4771984 L197.004324,15.7068859 C196.432432,16.8770266 195.263784,17.6471828 193.995676,17.6471828 C192.575892,17.6471828 191.854811,16.8521828 191.854811,15.3864016 C191.854811,13.4957922 192.97373,12.4275109 196.109189,12.4275109 C196.382703,12.4275109 196.83027,12.4523547 197.078919,12.4771984 Z M218.410486,1.72233906 L209.436757,1.72233906 L209.436757,18.7626672 L211.498054,18.7626672 L211.498054,10.6636047 L216.968324,10.6636047 L216.968324,9.00155781 L211.498054,9.00155781 L211.498054,3.40922969 L218.087243,3.40922969 L218.410486,1.72233906 Z M229.525081,17.8459328 C228.605081,17.3490578 228.480757,16.8273391 228.530486,14.8149953 L228.629946,10.7406203 C228.654811,9.62265156 228.629946,8.67610469 228.356432,8.00532344 C227.83427,6.74077656 226.643243,6.06999531 224.927568,6.06999531 C223.134811,6.06999531 221.369405,6.64140156 219.730811,7.73204219 L220.698054,9.12577656 C221.49373,8.40282344 223.259135,7.65751094 224.654054,7.65751094 C225.424865,7.65751094 225.922162,7.88110469 226.32,8.32829219 C226.668108,8.72579219 226.717838,9.17546406 226.717838,10.2685891 L226.717838,11.1381203 C226.32,11.1132766 226.121081,11.1132766 225.847568,11.1132766 C221.692649,11.1132766 219.283243,12.7504797 219.283243,15.5603078 C219.283243,17.2248391 220.203243,19.0856359 223.259135,19.0856359 C224.678919,19.0856359 225.648649,18.6136047 226.842162,17.4235891 C227.065946,18.2906359 227.685081,18.9614172 228.530486,19.2346984 L229.525081,17.8459328 Z M226.668108,12.4771984 L226.593514,15.7068859 C226.021622,16.8770266 224.852973,17.6471828 223.582378,17.6471828 C222.165081,17.6471828 221.444,16.8521828 221.444,15.3864016 C221.444,13.4957922 222.562919,12.4275109 225.698378,12.4275109 C225.971892,12.4275109 226.419459,12.4523547 226.668108,12.4771984 Z M241.286162,15.0882766 C241.286162,13.2498391 240.219459,12.1070266 237.981622,11.6349953 L236.338054,11.2846984 C235.020216,11.0114172 234.547784,10.4400109 234.547784,9.49594844 C234.547784,8.27860469 235.467784,7.45876094 236.885081,7.45876094 C237.981622,7.45876094 238.901622,7.83141719 239.995676,8.35313594 L240.71427,6.91219844 C239.672432,6.31843281 238.23027,5.92093281 236.934811,5.92093281 C234.348865,5.92093281 232.536216,7.48360469 232.536216,9.71954219 C232.536216,11.4337609 233.627784,12.7032766 235.666703,13.1256203 L237.210811,13.4485891 C238.628108,13.7467141 239.24973,14.3678078 239.24973,15.4857766 C239.24973,16.8024953 238.255135,17.6223391 236.735892,17.6223391 C235.368324,17.6223391 234.075351,17.2248391 232.80973,16.4546828 L232.063784,17.8956203 C233.331892,18.6632922 235.045081,19.1353234 236.611568,19.1353234 C239.398919,19.1353234 241.286162,17.4981203 241.286162,15.0882766 L241.286162,15.0882766 Z M254.265622,18.7626672 L254.265622,9.89344844 C254.265622,8.99907344 254.215892,8.60157344 254.066703,8.10469844 C253.718595,6.96437031 252.378378,6.14452656 250.886486,6.14452656 C249.292649,6.14452656 247.875351,7.06374531 246.756432,8.10469844 C246.781297,7.93079219 246.831027,7.11343281 246.831027,6.41780781 L246.831027,3.53593281 C246.831027,1.84655781 246.582378,0.803120312 246.507784,0.604370312 L244.570811,0.977026562 C244.645405,1.15093281 244.894054,2.07015156 244.894054,3.51108906 L244.894054,18.7626672 L246.831027,18.7626672 L246.831027,9.96797969 C247.900216,8.65126094 249.242919,7.88110469 250.438919,7.88110469 C251.060541,7.88110469 251.582703,8.07985469 251.881081,8.37797969 C252.229189,8.72579219 252.353514,9.29719844 252.353514,10.2164172 L252.353514,18.7626672 L254.265622,18.7626672 Z M261.004,18.7626672 L261.004,6.11968281 L258.992432,6.44265156 L258.992432,18.7626672 L261.004,18.7626672 Z M261.551027,2.56702656 C261.551027,1.72233906 260.879676,1.05155781 260.03427,1.05155781 C259.191351,1.05155781 258.52,1.74718281 258.52,2.59187031 C258.52,3.41171406 259.191351,4.08249531 260.03427,4.08249531 C260.879676,4.08249531 261.551027,3.41171406 261.551027,2.56702656 L261.551027,2.56702656 Z M275.525081,12.7778078 C275.525081,10.7629797 275.152108,9.29719844 274.381297,8.17922969 C273.538378,6.96437031 272.195676,6.02030781 270.129405,6.02030781 C266.872108,6.02030781 264.860541,8.47735469 264.860541,12.5045266 C264.860541,16.5789016 266.797514,19.0856359 270.204,19.0856359 C273.314595,19.0856359 275.525081,16.9018703 275.525081,12.7778078 L275.525081,12.7778078 Z M273.314595,12.9268703 C273.314595,14.1442141 273.215135,14.8398391 272.941622,15.6099953 C272.518919,16.8024953 271.549189,17.4732766 270.25373,17.4732766 C269.184541,17.4732766 268.189946,16.9764016 267.742378,16.2310891 C267.269946,15.4609328 266.971568,13.9206203 266.971568,12.1815578 C266.971568,10.7132922 267.170486,9.71954219 267.568324,8.94938594 C267.991027,8.12954219 269.010486,7.60782344 270.104541,7.60782344 C271.124,7.60782344 272.220541,8.10469844 272.742703,9.19782344 C273.140541,10.0176672 273.314595,11.1853234 273.314595,12.9268703 L273.314595,12.9268703 Z M288.479676,18.7626672 L288.479676,9.37172969 C288.479676,8.87485469 288.380216,8.37797969 288.181297,7.93079219 C287.684,6.84015156 286.492973,6.11968281 285.15027,6.11968281 C283.829946,6.11968281 282.536973,6.74077656 281.244,8.03016719 C281.244,7.13827656 280.895892,6.26874531 280.796432,6.09483906 L278.909189,6.61655781 C279.008649,6.79046406 279.381622,7.65999531 279.381622,9.22515156 L279.381622,18.7626672 L281.268865,18.7626672 L281.268865,9.54812031 C282.164,8.60157344 283.705622,7.80657344 284.700216,7.80657344 C285.274595,7.80657344 285.796757,8.00532344 286.07027,8.32829219 C286.418378,8.75063594 286.517838,9.07360469 286.517838,10.3903234 L286.517838,18.7626672 L288.479676,18.7626672 Z M307.97373,1.72233906 L296.687568,1.72233906 L296.687568,3.43407344 L301.262703,3.43407344 L301.262703,18.7626672 L303.224541,18.7626672 L303.224541,3.43407344 L307.849405,3.43407344 L307.97373,1.72233906 Z M315.284,6.14452656 C315.209405,6.11968281 314.911027,6.02030781 314.612649,6.02030781 C313.344541,6.02030781 312.026703,6.81530781 311.131568,8.07985469 C311.206162,7.16312031 310.833189,6.26874531 310.73373,6.06999531 L308.796757,6.59171406 C308.871351,6.76562031 309.219459,7.61030781 309.219459,9.22515156 L309.219459,18.7626672 L311.156432,18.7626672 L311.156432,11.0139016 C311.156432,9.99530781 311.305622,9.62265156 311.877514,9.05124531 C312.449405,8.47735469 313.195351,8.15438594 313.941297,8.15438594 C314.140216,8.15438594 314.364,8.20407344 314.488324,8.25376094 L315.284,6.14452656 Z M326.37373,12.8995422 L326.37373,12.6262609 C326.37373,9.67233906 326.025622,8.50219844 324.956432,7.40907344 C324.113514,6.54202656 322.944865,6.06999531 321.599676,6.06999531 C320.107784,6.06999531 318.889405,6.61655781 317.894811,7.78172969 C316.852973,9.02391719 316.405405,10.3679641 316.405405,12.4523547 C316.405405,16.5540578 318.466703,19.0359484 321.898054,19.0359484 C323.491892,19.0359484 324.981297,18.4893859 326.075351,17.4981203 L325.329405,16.2559328 C324.461622,17.0509328 323.491892,17.4235891 322.295892,17.4235891 C321.052649,17.4235891 319.908865,16.9764016 319.212649,15.9081203 C318.789946,15.2621828 318.640757,14.3653234 318.640757,13.1976672 L318.640757,12.8995422 L326.37373,12.8995422 Z M324.312432,11.4362453 L318.640757,11.4362453 C318.740216,8.87485469 319.734811,7.58297969 321.500216,7.58297969 C322.445081,7.58297969 323.317838,8.00532344 323.740541,8.67610469 C324.113514,9.27483906 324.287568,10.0946828 324.312432,11.4362453 L324.312432,11.4362453 Z M339.204,18.7626672 L339.204,9.37172969 C339.204,8.87485469 339.104541,8.37797969 338.905622,7.93079219 C338.408324,6.84015156 337.217297,6.11968281 335.872108,6.11968281 C334.55427,6.11968281 333.261297,6.74077656 331.968324,8.03016719 C331.968324,7.13827656 331.620216,6.26874531 331.520757,6.09483906 L329.633514,6.61655781 C329.732973,6.79046406 330.105946,7.65999531 330.105946,9.22515156 L330.105946,18.7626672 L331.993189,18.7626672 L331.993189,9.54812031 C332.888324,8.60157344 334.429946,7.80657344 335.424541,7.80657344 C335.998919,7.80657344 336.521081,8.00532344 336.794595,8.32829219 C337.142703,8.75063594 337.242162,9.07360469 337.242162,10.3903234 L337.242162,18.7626672 L339.204,18.7626672 Z M353.774811,18.7626672 C353.501297,18.0421984 353.401838,16.8993859 353.401838,14.7628234 L353.401838,0.952182812 L351.464865,0.629214062 L351.464865,5.82155781 C351.464865,6.61655781 351.48973,7.53329219 351.48973,7.73204219 C350.743784,6.74077656 349.522919,6.16937031 348.130486,6.16937031 C347.235351,6.16937031 346.539135,6.39296406 345.743459,6.93952656 C344.052649,8.10469844 343.184865,10.0425109 343.184865,12.6759484 C343.184865,16.6285891 345.022378,18.9365734 348.229946,18.9365734 C349.672108,18.9365734 350.619459,18.5142297 351.514595,17.4981203 C351.539459,18.0670422 351.738378,18.6384484 351.788108,18.7626672 L353.774811,18.7626672 Z M351.44,15.6075109 C351.365405,15.7814172 351.091892,16.2286047 350.694054,16.5018859 C349.895892,17.0757766 349.324,17.2993703 348.304541,17.2993703 C347.160757,17.2993703 346.389946,16.8770266 345.818054,15.8584328 C345.420216,15.1379641 345.320757,14.0696828 345.320757,12.6287453 C345.320757,10.8871984 345.519676,9.99282344 346.116432,9.04876094 C346.638595,8.20407344 347.459135,7.75688594 348.428865,7.75688594 C349.895892,7.75688594 350.818378,8.17922969 351.44,9.04876094 L351.44,15.6075109 Z M374.611568,17.6471828 L373.517514,16.2807766 C372.423459,17.0509328 371.45373,17.3739016 370.185622,17.3739016 C368.246162,17.3739016 366.480757,16.3304641 365.610486,14.1939016 C365.212649,13.2001516 365.063459,12.2312453 365.063459,10.5915578 C365.063459,8.57672969 365.287243,7.21032344 365.784541,6.06751094 C366.605081,4.15454219 368.022378,3.13594844 369.986703,3.13594844 C371.229946,3.13594844 372.199676,3.45891719 373.219135,4.20422969 L374.313189,2.88751094 C373.144541,1.99562031 371.652649,1.49874531 370.011568,1.49874531 C365.884,1.49874531 362.852973,5.22282344 362.852973,10.2934328 C362.852973,12.8274953 363.447243,15.1379641 364.889405,16.7776516 C366.207243,18.2682766 368.022378,19.0359484 369.862378,19.0359484 C371.553189,19.0359484 373.244,18.5390734 374.611568,17.6471828 L374.611568,17.6471828 Z M386.322919,12.8995422 L386.322919,12.6262609 C386.322919,9.67233906 385.974811,8.50219844 384.905622,7.40907344 C384.062703,6.54202656 382.891568,6.06999531 381.548865,6.06999531 C380.056973,6.06999531 378.838595,6.61655781 377.844,7.78172969 C376.802162,9.02391719 376.354595,10.3679641 376.354595,12.4523547 C376.354595,16.5540578 378.415892,19.0359484 381.847243,19.0359484 C383.441081,19.0359484 384.930486,18.4893859 386.024541,17.4981203 L385.278595,16.2559328 C384.410811,17.0509328 383.441081,17.4235891 382.245081,17.4235891 C381.001838,17.4235891 379.858054,16.9764016 379.161838,15.9081203 C378.739135,15.2621828 378.589946,14.3653234 378.589946,13.1976672 L378.589946,12.8995422 L386.322919,12.8995422 Z M384.261622,11.4362453 L378.589946,11.4362453 C378.689405,8.87485469 379.684,7.58297969 381.449405,7.58297969 C382.39427,7.58297969 383.267027,8.00532344 383.68973,8.67610469 C384.062703,9.27483906 384.236757,10.0946828 384.261622,11.4362453 L384.261622,11.4362453 Z M399.153189,18.7626672 L399.153189,9.37172969 C399.153189,8.87485469 399.05373,8.37797969 398.854811,7.93079219 C398.357514,6.84015156 397.166486,6.11968281 395.821297,6.11968281 C394.503459,6.11968281 393.210486,6.74077656 391.917514,8.03016719 C391.917514,7.13827656 391.569405,6.26874531 391.469946,6.09483906 L389.582703,6.61655781 C389.682162,6.79046406 390.055135,7.65999531 390.055135,9.22515156 L390.055135,18.7626672 L391.942378,18.7626672 L391.942378,9.54812031 C392.837514,8.60157344 394.379135,7.80657344 395.37373,7.80657344 C395.945622,7.80657344 396.47027,8.00532344 396.743784,8.32829219 C397.091892,8.75063594 397.191351,9.07360469 397.191351,10.3903234 L397.191351,18.7626672 L399.153189,18.7626672 Z M408.974811,6.39296406 L405.866703,6.39296406 C405.866703,4.92718281 406.065622,3.21296406 406.115351,2.81546406 L404.078919,3.26265156 C404.029189,3.66015156 403.88,5.32468281 403.88,6.39296406 L402.263784,6.39296406 L402.263784,7.85626094 L403.88,7.85626094 L403.88,16.3553078 C403.88,17.5974953 404.203243,18.3924953 405.071027,18.8123547 C405.543459,19.0359484 406.040757,19.1601672 406.687243,19.1601672 C407.557514,19.1601672 408.25373,18.9862609 408.875351,18.6632922 L408.601838,17.4235891 C408.25373,17.5974953 407.930486,17.6720266 407.383459,17.6720266 C406.165081,17.6720266 405.792108,17.1999953 405.792108,15.8335891 L405.792108,7.85626094 L408.378054,7.85626094 L408.974811,6.39296406 Z M420.934811,12.8995422 L420.934811,12.6262609 C420.934811,9.67233906 420.586703,8.50219844 419.517514,7.40907344 C418.674595,6.54202656 417.503459,6.06999531 416.160757,6.06999531 C414.668865,6.06999531 413.450486,6.61655781 412.455892,7.78172969 C411.414054,9.02391719 410.966486,10.3679641 410.966486,12.4523547 C410.966486,16.5540578 413.027784,19.0359484 416.459135,19.0359484 C418.052973,19.0359484 419.542378,18.4893859 420.636432,17.4981203 L419.890486,16.2559328 C419.022703,17.0509328 418.052973,17.4235891 416.856973,17.4235891 C415.61373,17.4235891 414.469946,16.9764016 413.77373,15.9081203 C413.351027,15.2621828 413.201838,14.3653234 413.201838,13.1976672 L413.201838,12.8995422 L420.934811,12.8995422 Z M418.873514,11.4362453 L413.201838,11.4362453 C413.301297,8.87485469 414.295892,7.58297969 416.061297,7.58297969 C417.006162,7.58297969 417.878919,8.00532344 418.301622,8.67610469 C418.674595,9.27483906 418.848649,10.0946828 418.873514,11.4362453 L418.873514,11.4362453 Z M430.729081,6.14452656 C430.654486,6.11968281 430.358595,6.02030781 430.05773,6.02030781 C428.789622,6.02030781 427.471784,6.81530781 426.579135,8.07985469 C426.651243,7.16312031 426.280757,6.26874531 426.181297,6.06999531 L424.244324,6.59171406 C424.318919,6.76562031 424.667027,7.61030781 424.667027,9.22515156 L424.667027,18.7626672 L426.601514,18.7626672 L426.601514,11.0139016 C426.601514,9.99530781 426.750703,9.62265156 427.325081,9.05124531 C427.894486,8.47735469 428.640432,8.15438594 429.388865,8.15438594 C429.587784,8.15438594 429.811568,8.20407344 429.935892,8.25376094 L430.729081,6.14452656 Z M448.681514,12.4026672 C448.681514,8.52704219 446.844,6.11968281 443.885081,6.11968281 C442.567243,6.11968281 441.547784,6.59171406 440.326919,7.78172969 C440.326919,7.63266719 440.376649,6.96437031 440.376649,6.41780781 L440.376649,3.53593281 C440.376649,1.84655781 440.130486,0.803120312 440.055892,0.604370312 L438.118919,0.977026562 C438.193514,1.15093281 438.442162,2.07015156 438.442162,3.51108906 L438.442162,15.6820422 C438.442162,17.3465734 438.342703,18.1664172 438.069189,18.7626672 L440.006162,18.7626672 C440.252324,18.2657922 440.302054,17.9428234 440.351784,17.4211047 C441.048,18.3428078 442.467784,19.0607922 443.760757,19.0607922 C446.719676,19.0607922 448.681514,16.3801516 448.681514,12.4051516 L448.681514,12.4026672 Z M446.523243,12.2809328 C446.523243,14.3678078 446.100541,15.5851516 445.650486,16.2559328 C445.202919,16.9018703 444.258054,17.3490578 443.412649,17.3490578 C442.244,17.3490578 440.99827,16.7031203 440.351784,15.8584328 L440.351784,9.49594844 C441.023135,8.57672969 442.244,7.88110469 443.462378,7.88110469 C444.432108,7.88110469 445.327243,8.27860469 445.799676,8.94938594 C446.324324,9.66985469 446.523243,10.6387609 446.523243,12.2809328 L446.523243,12.2809328 Z M461.884757,12.8995422 L461.884757,12.6262609 C461.884757,9.67233906 461.536649,8.50219844 460.469946,7.40907344 C459.624541,6.54202656 458.455892,6.06999531 457.113189,6.06999531 C455.621297,6.06999531 454.400432,6.61655781 453.408324,7.78172969 C452.364,9.02391719 451.918919,10.3679641 451.918919,12.4523547 C451.918919,16.5540578 453.97773,19.0359484 457.411568,19.0359484 C459.002919,19.0359484 460.494811,18.4893859 461.586378,17.4981203 L460.842919,16.2559328 C459.972649,17.0509328 459.002919,17.4235891 457.809405,17.4235891 C456.566162,17.4235891 455.422378,16.9764016 454.723676,15.9081203 C454.300973,15.2621828 454.151784,14.3653234 454.151784,13.1976672 L454.151784,12.8995422 L461.884757,12.8995422 Z M459.825946,11.4362453 L454.151784,11.4362453 C454.251243,8.87485469 455.248324,7.58297969 457.01373,7.58297969 C457.958595,7.58297969 458.828865,8.00532344 459.251568,8.67610469 C459.624541,9.27483906 459.801081,10.0946828 459.825946,11.4362453 L459.825946,11.4362453 Z M481.080432,18.7626672 L481.080432,9.42141719 C481.080432,7.45876094 479.814811,6.06999531 477.974811,6.06999531 C476.706703,6.06999531 475.187459,6.86499531 473.993946,8.12954219 C473.548865,6.81530781 472.330486,6.06999531 471.112108,6.06999531 C469.844,6.06999531 468.324757,7.01405781 467.504216,7.93079219 C467.504216,7.16312031 467.156108,6.29358906 467.059135,6.09483906 L465.169405,6.54202656 C465.268865,6.71593281 465.616973,7.58546406 465.616973,9.17546406 L465.616973,18.7626672 L467.479351,18.7626672 L467.479351,9.52327656 C468.774811,8.35313594 469.694811,7.88110469 470.639676,7.88110469 C471.211568,7.88110469 471.609405,8.03016719 471.907784,8.37797969 C472.181297,8.72579219 472.255892,9.22266719 472.255892,9.96797969 L472.255892,18.7626672 L474.21773,18.7626672 L474.21773,9.71954219 C475.513189,8.52704219 476.383459,7.80657344 477.502378,7.80657344 C478.546703,7.80657344 479.09373,8.42766719 479.09373,9.62016719 L479.09373,18.7626672 L481.080432,18.7626672 Z M495.775568,17.9701516 C495.153946,17.3987453 494.930162,16.7776516 494.930162,15.2124953 L494.930162,6.19421406 L493.018054,6.51718281 L493.018054,15.2870266 C492.346703,16.6285891 491.078595,17.5229641 489.860216,17.5229641 C489.313189,17.5229641 488.738811,17.3739016 488.340973,17.1006203 C487.769081,16.7031203 487.595027,16.1814016 487.595027,15.0137453 L487.595027,6.11968281 L485.682919,6.49233906 L485.682919,15.5851516 C485.682919,16.3056203 485.782378,16.9515578 486.006162,17.4235891 C486.528324,18.5142297 487.694486,19.1850109 489.263459,19.1850109 C490.95427,19.1850109 492.247243,18.5639172 493.192108,17.2993703 C493.366162,18.1167297 493.71427,18.6136047 494.532324,19.2843859 L495.775568,17.9701516 Z M504.751784,6.39296406 L501.643676,6.39296406 C501.643676,4.92718281 501.842595,3.21296406 501.892324,2.81546406 L499.855892,3.26265156 C499.806162,3.66015156 499.656973,5.32468281 499.656973,6.39296406 L498.040757,6.39296406 L498.040757,7.85626094 L499.656973,7.85626094 L499.656973,16.3553078 C499.656973,17.5974953 499.980216,18.3924953 500.850486,18.8123547 C501.320432,19.0359484 501.81773,19.1601672 502.464216,19.1601672 C503.334486,19.1601672 504.030703,18.9862609 504.652324,18.6632922 L504.378811,17.4235891 C504.030703,17.5974953 503.707459,17.6720266 503.160432,17.6720266 C501.942054,17.6720266 501.569081,17.1999953 501.569081,15.8335891 L501.569081,7.85626094 L504.155027,7.85626094 L504.751784,6.39296406 Z M516.736649,17.8459328 C515.816649,17.3490578 515.692324,16.8273391 515.742054,14.8149953 L515.841514,10.7406203 C515.866378,9.62265156 515.841514,8.67610469 515.568,8.00532344 C515.048324,6.74077656 513.854811,6.06999531 512.139135,6.06999531 C510.346378,6.06999531 508.580973,6.64140156 506.942378,7.73204219 L507.912108,9.12577656 C508.705297,8.40282344 510.473189,7.65751094 511.865622,7.65751094 C512.636432,7.65751094 513.13373,7.88110469 513.531568,8.32829219 C513.879676,8.72579219 513.929405,9.17546406 513.929405,10.2685891 L513.929405,11.1381203 C513.531568,11.1132766 513.332649,11.1132766 513.059135,11.1132766 C508.904216,11.1132766 506.494811,12.7504797 506.494811,15.5603078 C506.494811,17.2248391 507.414811,19.0856359 510.473189,19.0856359 C511.890486,19.0856359 512.860216,18.6136047 514.05373,17.4235891 C514.277514,18.2906359 514.899135,18.9614172 515.742054,19.2346984 L516.736649,17.8459328 Z M513.879676,12.4771984 L513.805081,15.7068859 C513.233189,16.8770266 512.064541,17.6471828 510.796432,17.6471828 C509.376649,17.6471828 508.655568,16.8521828 508.655568,15.3864016 C508.655568,13.4957922 509.774486,12.4275109 512.909946,12.4275109 C513.183459,12.4275109 513.631027,12.4523547 513.879676,12.4771984 Z M525.613405,6.39296406 L522.505297,6.39296406 C522.505297,4.92718281 522.704216,3.21296406 522.753946,2.81546406 L520.717514,3.26265156 C520.667784,3.66015156 520.518595,5.32468281 520.518595,6.39296406 L518.902378,6.39296406 L518.902378,7.85626094 L520.518595,7.85626094 L520.518595,16.3553078 C520.518595,17.5974953 520.841838,18.3924953 521.709622,18.8123547 C522.182054,19.0359484 522.679351,19.1601672 523.325838,19.1601672 C524.196108,19.1601672 524.892324,18.9862609 525.513946,18.6632922 L525.240432,17.4235891 C524.892324,17.5974953 524.569081,17.6720266 524.022054,17.6720266 C522.803676,17.6720266 522.430703,17.1999953 522.430703,15.8335891 L522.430703,7.85626094 L525.016649,7.85626094 L525.613405,6.39296406 Z M530.462054,18.5142297 L530.462054,6.09483906 L528.475351,6.49233906 L528.475351,18.3403234 C528.475351,20.5017297 528.326162,21.6445422 526.610486,22.3898547 L527.580216,23.6817297 C528.748865,23.1600109 529.641514,22.3898547 530.113946,21.2470422 C530.387459,20.5762609 530.462054,19.5825109 530.462054,18.5142297 L530.462054,18.5142297 Z M530.984216,2.56702656 C530.984216,1.72233906 530.312865,1.05155781 529.469946,1.05155781 C528.624541,1.05155781 527.953189,1.72233906 527.953189,2.56702656 C527.953189,3.41171406 528.624541,4.08249531 529.469946,4.08249531 C530.312865,4.08249531 530.984216,3.41171406 530.984216,2.56702656 L530.984216,2.56702656 Z M544.311784,17.8459328 C543.391784,17.3490578 543.267459,16.8273391 543.317189,14.8149953 L543.416649,10.7406203 C543.441514,9.62265156 543.416649,8.67610469 543.143135,8.00532344 C542.620973,6.74077656 541.429946,6.06999531 539.71427,6.06999531 C537.921514,6.06999531 536.156108,6.64140156 534.517514,7.73204219 L535.484757,9.12577656 C536.280432,8.40282344 538.045838,7.65751094 539.440757,7.65751094 C540.211568,7.65751094 540.708865,7.88110469 541.106703,8.32829219 C541.454811,8.72579219 541.504541,9.17546406 541.504541,10.2685891 L541.504541,11.1381203 C541.106703,11.1132766 540.907784,11.1132766 540.63427,11.1132766 C536.479351,11.1132766 534.069946,12.7504797 534.069946,15.5603078 C534.069946,17.2248391 534.989946,19.0856359 538.045838,19.0856359 C539.465622,19.0856359 540.435351,18.6136047 541.628865,17.4235891 C541.852649,18.2906359 542.471784,18.9614172 543.317189,19.2346984 L544.311784,17.8459328 Z M541.454811,12.4771984 L541.380216,15.7068859 C540.808324,16.8770266 539.639676,17.6471828 538.369081,17.6471828 C536.951784,17.6471828 536.230703,16.8521828 536.230703,15.3864016 C536.230703,13.4957922 537.349622,12.4275109 540.485081,12.4275109 C540.758595,12.4275109 541.206162,12.4523547 541.454811,12.4771984 Z M551.174486,17.3714172 C551.174486,16.4521984 550.428541,15.7068859 549.533405,15.7068859 C548.588541,15.7068859 547.842595,16.4521984 547.842595,17.3962609 C547.842595,18.3154797 548.563676,19.0607922 549.483676,19.0607922 C550.428541,19.0607922 551.174486,18.3154797 551.174486,17.3714172 L551.174486,17.3714172 Z M551.174486,9.52327656 C551.174486,8.60405781 550.428541,7.85874531 549.533405,7.85874531 C548.588541,7.85874531 547.842595,8.62890156 547.842595,9.57296406 C547.842595,10.4921828 548.588541,11.2126516 549.508541,11.2126516 C550.428541,11.2126516 551.174486,10.4673391 551.174486,9.52327656 L551.174486,9.52327656 Z" id="Fill-1" fill="#000000" mask="url(#mask-2)"></path>
                </g>
                <path d="M202.591957,154.668166 L188.304605,107.509759 L175.708065,107.509759 L160.540497,154.668166 L173.271308,154.668166 L175.844822,145.602681 L187.016605,145.602681 L189.455849,154.668166 L202.591957,154.668166 Z M184.579849,136.2664 L178.48547,136.2664 L180.380173,128.552416 C180.922227,126.251884 181.464281,123.680556 181.668173,121.380025 C181.802443,123.613478 182.07347,125.643212 182.548389,127.672947 L184.579849,136.2664 Z M261.571416,107.509759 L248.636714,107.509759 L246.267092,119.216134 C245.319741,123.817197 243.89747,133.625509 243.626443,137.821619 L243.559308,137.821619 C243.288281,132.070291 242.34093,126.860556 241.662119,123.275603 L238.616173,107.509759 L225.141903,107.509759 L222.702659,120.567634 C221.417146,127.536306 220.604065,134.100025 220.333038,137.888697 L220.265903,137.888697 C220.196281,136.129759 219.790984,130.852947 217.555632,120.229759 L214.914984,107.509759 L202.117038,107.509759 L213.562335,154.668166 L226.765578,154.668166 L229.271957,141.001619 C230.4232,134.845337 231.437686,127.876666 231.574443,125.506572 L231.641578,125.506572 C231.84547,128.485337 232.927092,135.317369 233.944065,141.001619 L236.380822,154.668166 L249.315524,154.668166 L261.571416,107.509759 Z M303.147957,154.668166 L288.860605,107.509759 L276.264065,107.509759 L261.096497,154.668166 L273.827308,154.668166 L276.400822,145.602681 L287.572605,145.602681 L290.011849,154.668166 L303.147957,154.668166 Z M285.135849,136.2664 L279.04147,136.2664 L280.936173,128.552416 C281.478227,126.251884 282.020281,123.680556 282.224173,121.380025 C282.358443,123.613478 282.62947,125.643212 283.104389,127.672947 L285.135849,136.2664 Z M344.386335,154.668166 C342.827308,151.150291 338.834011,142.422681 337.274984,139.242681 C336.123741,136.805509 334.161903,134.641619 332.535741,134.167103 C338.088065,133.220556 342.354876,129.094009 342.354876,120.975072 C342.354876,113.126931 337.884173,107.509759 324.004605,107.509759 L307.75293,107.509759 L307.75293,154.668166 L319.872065,154.668166 L319.872065,135.995603 C322.512714,135.995603 323.596822,136.604275 325.424389,141.476134 L330.367524,154.668166 L344.386335,154.668166 Z M328.878119,121.921619 C328.878119,125.101619 327.455849,127.064275 323.325795,127.064275 L319.872065,127.064275 L319.872065,117.457197 L323.258659,117.457197 C327.050551,117.457197 328.878119,118.5379 328.878119,121.921619 L328.878119,121.921619 Z M385.758984,130.244275 C385.758984,120.637197 383.389362,114.140556 378.038443,110.418962 C374.246551,107.780556 370.049362,107.509759 366.799524,107.509759 L350.140065,107.509759 L350.140065,154.668166 L367.271957,154.668166 C373.637362,154.668166 377.429254,152.571353 380.410551,148.983916 C384.674876,143.910822 385.758984,137.550822 385.758984,130.244275 L385.758984,130.244275 Z M372.418984,129.836837 C372.418984,142.894712 369.7112,144.586572 366.324605,144.586572 L362.261686,144.586572 L362.261686,117.457197 L365.986443,117.457197 C369.644065,117.457197 372.418984,118.878259 372.418984,129.836837 L372.418984,129.836837 Z" id="Fill-4" fill="#000000"></path>
                <path d="M60.4957189,52.4229672 L34.4920432,52.4229672 L34.4920432,99.5813734 L46.6136649,99.5813734 L46.6136649,79.8927016 L57.1787459,79.8927016 L57.1787459,70.2856234 L46.6136649,70.2856234 L46.6136649,62.3679203 L59.6155027,62.3679203 L60.4957189,52.4229672 Z M101.734097,99.5813734 L87.4442595,52.4229672 L74.8502054,52.4229672 L59.6826378,99.5813734 L72.4134486,99.5813734 L74.9844757,90.5134047 L86.1587459,90.5134047 L88.5955027,99.5813734 L101.734097,99.5813734 Z M83.7219892,81.1771234 L77.6276108,81.1771234 L79.5223135,73.4656234 C80.0643676,71.1650922 80.6064216,68.5937641 80.8103135,66.2932328 C80.9445838,68.5266859 81.2156108,70.5564203 81.6905297,72.5861547 L83.7219892,81.1771234 Z M142.022638,83.1397797 C142.022638,73.6668578 134.709881,71.3663266 129.629989,70.0819047 L124.823611,68.8645609 C121.302746,67.9850922 120.218638,66.4273891 120.218638,64.8721703 C120.218638,62.9765922 121.911935,61.4884516 125.027503,61.4884516 C128.277341,61.4884516 132.47453,62.7057953 135.657232,64.8050922 L141.480584,56.2116391 C137.283395,53.3024359 131.189016,51.6105766 124.619719,51.6105766 C114.057124,51.6105766 106.336584,57.8364203 106.336584,67.1727016 C106.336584,75.2916391 111.008692,79.0803109 117.849016,80.8392484 L123.401341,82.2603109 C126.651178,83.0727016 128.140584,84.0192484 128.140584,86.1160609 C128.140584,88.6873891 126.245881,90.4463266 121.504151,90.4463266 C116.697773,90.4463266 111.617881,88.6203109 108.233773,86.6576547 L103.966962,96.1305766 C108.706205,98.6323422 114.25853,100.39128 121.369881,100.39128 C133.625773,100.39128 142.022638,94.4387172 142.022638,83.1397797 L142.022638,83.1397797 Z M182.718962,99.5813734 L182.718962,52.4229672 L170.599827,52.4229672 L170.599827,69.7440297 L160.914962,69.7440297 L160.914962,52.4229672 L148.793341,52.4229672 L148.793341,99.5813734 L160.914962,99.5813734 L160.914962,79.7560609 L170.599827,79.7560609 L170.599827,99.5813734 L182.718962,99.5813734 Z M192.197449,99.5813734 L204.590097,99.5813734 L204.590097,52.4229672 L192.197449,52.4229672 L192.197449,99.5813734 Z M254.429232,74.2084516 C254.429232,63.8560609 249.757124,51.6105766 233.706854,51.6105766 C221.24707,51.6105766 212.039611,60.4077484 212.039611,77.1847328 C212.039611,91.3257953 219.623395,100.39128 233.301557,100.39128 C250.162422,100.39128 254.429232,87.7408422 254.429232,74.2084516 L254.429232,74.2084516 Z M240.885341,75.6965922 C240.885341,87.8079203 238.649989,90.8537641 233.505449,90.8537641 C228.492692,90.8537641 225.581016,87.8749984 225.581016,75.8332328 C225.581016,66.8348266 227.883503,61.0834984 233.368692,61.0834984 C238.582854,61.0834984 240.885341,63.9256234 240.885341,75.6965922 L240.885341,75.6965922 Z M297.157016,99.5813734 L297.157016,52.4229672 L285.644584,52.4229672 L285.644584,67.0360609 C285.644584,70.1489828 285.711719,74.8171234 286.049881,77.5921703 C284.898638,74.4121703 283.478854,71.0955297 282.123719,68.5937641 L273.522962,52.4229672 L261.876259,52.4229672 L261.876259,99.5813734 L273.388692,99.5813734 L273.388692,86.3197797 C273.388692,80.5013734 272.980908,76.1711078 272.709881,74.3450922 C273.726854,77.3884516 275.149124,80.7721703 276.367503,83.2068578 L284.697232,99.5813734 L297.157016,99.5813734 Z M354.10253,52.4229672 L318.483611,52.4229672 L318.483611,62.4374828 L329.453989,62.4374828 L329.453989,99.5813734 L341.709881,99.5813734 L341.709881,62.4374828 L352.680259,62.4374828 L354.10253,52.4229672 Z M395.475178,99.5813734 C393.918638,96.0610141 389.922854,87.3334047 388.363827,84.1534047 C387.212584,81.7187172 385.250746,79.5548266 383.624584,79.0803109 C389.176908,78.1337641 393.443719,74.0047328 393.443719,65.8857953 C393.443719,58.0376547 388.973016,52.4229672 375.093449,52.4229672 L358.841773,52.4229672 L358.841773,99.5813734 L370.960908,99.5813734 L370.960908,80.9063266 C373.604043,80.9063266 374.685665,81.5149984 376.515719,86.3868578 L381.458854,99.5813734 L395.475178,99.5813734 Z M379.966962,66.8348266 C379.966962,70.0148266 378.547178,71.9749984 374.414638,71.9749984 L370.960908,71.9749984 L370.960908,62.3679203 L374.347503,62.3679203 C378.139395,62.3679203 379.966962,63.4511078 379.966962,66.8348266 L379.966962,66.8348266 Z M429.53507,99.5813734 L429.53507,89.4997797 L413.35053,89.4997797 L413.35053,79.8927016 L425.133989,79.8927016 L425.133989,70.2856234 L413.35053,70.2856234 L413.35053,62.3679203 L427.774638,62.3679203 L428.654854,52.4229672 L401.228908,52.4229672 L401.228908,99.5813734 L429.53507,99.5813734 Z M471.58653,99.5813734 L471.58653,52.4229672 L460.074097,52.4229672 L460.074097,67.0360609 C460.074097,70.1489828 460.141232,74.8171234 460.479395,77.5921703 C459.328151,74.4121703 457.905881,71.0955297 456.553232,68.5937641 L447.952476,52.4229672 L436.305773,52.4229672 L436.305773,99.5813734 L447.818205,99.5813734 L447.818205,86.3197797 C447.818205,80.5013734 447.410422,76.1711078 447.139395,74.3450922 C448.156368,77.3884516 449.578638,80.7721703 450.797016,83.2068578 L459.126746,99.5813734 L471.58653,99.5813734 Z M516.681449,75.1549984 C516.681449,65.5479203 514.311827,59.0537641 508.963395,55.3321703 C505.171503,52.6937641 500.971827,52.4229672 497.721989,52.4229672 L481.065016,52.4229672 L481.065016,99.5813734 L498.196908,99.5813734 C504.562314,99.5813734 508.354205,97.4820766 511.333016,93.8971234 C515.599827,88.8240297 516.681449,82.4640297 516.681449,75.1549984 L516.681449,75.1549984 Z M503.341449,74.7500453 C503.341449,87.8079203 500.633665,89.4997797 497.24707,89.4997797 L493.184151,89.4997797 L493.184151,62.3679203 L496.908908,62.3679203 C500.56653,62.3679203 503.341449,63.7889828 503.341449,74.7500453 L503.341449,74.7500453 Z" id="Fill-6" fill="#000000"></path>
            </g>
        </g>
    </g>
</svg>