<?xml version="1.0" encoding="UTF-8" standalone="no"?>
<svg width="544px" height="138px" viewBox="0 0 544 138" version="1.1" xmlns="http://www.w3.org/2000/svg" xmlns:xlink="http://www.w3.org/1999/xlink">
    <!-- Generator: Sketch 43.2 (39069) - http://www.bohemiancoding.com/sketch -->
    <title>Fill 16</title>
    <desc>Created with Sketch.</desc>
    <defs></defs>
    <g id="Page-1" stroke="none" stroke-width="1" fill="none" fill-rule="evenodd">
        <g id="joy-fashion-trend-nyito" transform="translate(-149.000000, -2242.000000)" fill="#000104">
            <path d="M474.39159,2321.12969 C462.683636,2329.94884 446.076493,2337.97411 426.615254,2342.76623 C414.102404,2345.84306 401.835951,2347.23751 390.698816,2347.23751 C377.758879,2347.23751 366.338388,2345.35357 357.845912,2342.07929 C349.33701,2338.80502 343.842362,2334.14452 342.499499,2328.76418 C342.253102,2327.7893 342.129904,2326.78151 342.129904,2325.73671 C342.101158,2317.97059 348.983841,2308.24648 360.851953,2299.3574 C372.699531,2290.45187 389.454513,2282.34845 408.940391,2277.55632 C421.280763,2274.52063 433.329566,2273.14675 444.27369,2273.14675 L444.281903,2273.14675 C457.242374,2273.14675 468.650545,2275.07182 477.130701,2278.39546 C485.623176,2281.7191 491.109611,2286.43307 492.460687,2291.85454 C492.71119,2292.84587 492.834389,2293.87423 492.834389,2294.93549 C492.863135,2302.68515 486.11597,2312.31876 474.39159,2321.12969 L474.39159,2321.12969 Z M639.559566,2249.89775 L595.926802,2294.75861 L554.770326,2249.89775 L499.277665,2249.89775 L504.731247,2255.03129 C489.980293,2246.59879 469.697731,2242.00411 446.856749,2242 C432.376832,2242 416.853835,2243.84281 401.026948,2247.74232 C354.076041,2259.32569 317.95838,2285.54046 307.515263,2312.93989 L307.515263,2249.49463 L263.130989,2249.49463 L263.08171,2324.05432 C261.948285,2333.39999 250.790617,2344.97513 229.830464,2345.40293 C229.530681,2345.40704 229.230899,2345.41115 228.931116,2345.41115 C207.096254,2345.44817 197.51142,2328.89992 196.49298,2323.48667 L196.394421,2322.96427 L149,2322.96427 L149.275143,2323.80341 C155.587007,2343.13644 170.407774,2374.26673 229.674413,2374.26673 L229.846891,2374.26673 C256.44953,2374.26673 275.820423,2369.02625 288.596097,2360.92283 C297.840083,2355.06122 303.601661,2347.66119 306.082055,2339.69763 C313.703929,2364.60433 346.277583,2379.1329 386.937159,2379.14112 C401.417076,2379.14112 416.940073,2377.2942 432.76696,2373.40292 C488.711349,2359.59831 529.276473,2325.02097 529.354498,2292.42219 C529.354498,2289.30834 528.980797,2286.21917 528.21286,2283.17524 C527.325832,2279.68296 525.941903,2276.40046 524.143207,2273.31128 L573.722346,2319.9985 L573.722346,2371.83159 L618.106619,2371.83159 L618.106619,2319.9985 L692.5513,2249.89775 L639.559566,2249.89775 Z" id="Fill-16"></path>
        </g>
    </g>
</svg>