<?xml version="1.0" encoding="UTF-8" standalone="no"?>
<svg width="275px" height="79px" viewBox="0 0 275 79" version="1.1" xmlns="http://www.w3.org/2000/svg" xmlns:xlink="http://www.w3.org/1999/xlink">
    <!-- Generator: Sketch 43.2 (39069) - http://www.bohemiancoding.com/sketch -->
    <title>Page 1</title>
    <desc>Created with Sketch.</desc>
    <defs>
        <polygon id="path-1" points="76.3771221 77.2217743 76.3771221 0.385171654 0.392859707 0.385171654 0.392859707 77.2217743"></polygon>
    </defs>
    <g id="Page-1" stroke="none" stroke-width="1" fill="none" fill-rule="evenodd">
        <g id="joy-fashion-trend-nyito" transform="translate(-347.000000, -108.000000)">
            <g id="Page-1" transform="translate(347.000000, 108.000000)">
                <g id="Group-3" transform="translate(198.063055, 0.572151)">
                    <mask id="mask-2" fill="white">
                        <use xlink:href="#path-1"></use>
                    </mask>
                    <g id="Clip-2"></g>
                    <polygon id="Stroke-1" stroke="#000104" stroke-width="4" mask="url(#mask-2)" points="0.392859707 77.2217743 76.4274762 77.2217743 76.4274762 0.385171654 0.392859707 0.385171654"></polygon>
                </g>
                <g id="Group-20" transform="translate(0.000000, 16.496560)">
                    <path d="M245.692784,56.7618276 C246.399066,56.7618276 246.829726,56.3345226 246.994039,55.6656974 L246.613733,55.5794402 C246.471947,56.1288323 246.175123,56.3968932 245.695435,56.3968932 C245.064684,56.3968932 244.664502,55.8859851 244.664502,54.98891 C244.664502,54.1515515 245.058058,53.6207378 245.687484,53.6207378 C246.179098,53.6207378 246.412317,53.8821636 246.558079,54.3930717 L246.94236,54.289563 C246.787322,53.66453 246.409667,53.2518224 245.692784,53.2518224 C244.846041,53.2518224 244.259019,53.936572 244.259019,54.9942182 C244.259019,56.0983106 244.834115,56.7618276 245.692784,56.7618276 L245.692784,56.7618276 Z M249.078432,56.6968029 L251.244981,56.6968029 L251.244981,56.3345226 L249.478614,56.3345226 L249.478614,55.103035 L250.721564,55.103035 L250.721564,54.7407546 L249.478614,54.7407546 L249.478614,53.6857625 L251.148248,53.6857625 L251.148248,53.314193 L249.078432,53.314193 L249.078432,56.6968029 Z M253.28962,56.6968029 L253.668601,56.6968029 L253.668601,53.9498423 L253.676552,53.9498423 L255.517125,56.6968029 L255.878879,56.6968029 L255.878879,53.314193 L255.498573,53.314193 L255.498573,55.9894938 L255.490622,55.9894938 L253.713655,53.314193 L253.28962,53.314193 L253.28962,56.6968029 Z M258.969027,56.6968029 L259.36921,56.6968029 L259.36921,53.6857625 L260.447846,53.6857625 L260.447846,53.314193 L257.895691,53.314193 L257.895691,53.6857625 L258.969027,53.6857625 L258.969027,56.6968029 Z M262.465984,56.6968029 L264.635183,56.6968029 L264.635183,56.3345226 L262.867491,56.3345226 L262.867491,55.103035 L264.109116,55.103035 L264.109116,54.7407546 L262.867491,54.7407546 L262.867491,53.6857625 L264.539775,53.6857625 L264.539775,53.314193 L262.465984,53.314193 L262.465984,56.6968029 Z M266.677172,56.6968029 L267.076029,56.6968029 L267.076029,55.2383924 L267.839291,55.2383924 L268.646281,56.6968029 L269.083566,56.6968029 L268.252724,55.1879651 C268.733738,55.0897646 269.039837,54.8044523 269.039837,54.2603683 C269.039837,53.6379893 268.605202,53.314193 267.839291,53.314193 L266.677172,53.314193 L266.677172,56.6968029 Z M267.076029,54.8827473 L267.076029,53.6804544 L267.810139,53.6804544 C268.349457,53.6804544 268.64098,53.8304092 268.64098,54.2762927 C268.64098,54.7381006 268.344156,54.8827473 267.814114,54.8827473 L267.076029,54.8827473 Z" id="Fill-4" fill="#000104"></path>
                    <path d="M263.35407,26.9242616 C263.146028,26.5380947 262.312536,25.9422564 261.746716,25.9422564 C261.032483,25.9422564 257.937034,32.110311 255.586295,39.2351572 C255.139734,38.6685136 254.038571,38.1907813 253.085819,38.1907813 C249.892312,38.1907813 247.903327,41.1872244 247.297753,44.2301136 C246.394031,46.463512 244.740298,49.7173997 244.037991,49.0127446 C243.233652,48.2656244 244.900636,42.0975698 245.614868,39.8004737 C245.764605,39.4143068 245.585716,38.9976181 245.226612,38.8184685 C244.721746,38.5198858 244.067144,38.1907813 243.946559,38.1907813 C242.757938,38.1907813 238.769367,44.4225335 238.114765,45.4350606 C238.620955,43.4086795 239.30471,41.2310165 239.988465,39.2948737 C240.107725,39.2643519 240.226985,39.1170511 240.107725,38.9379015 C239.899683,38.6990354 239.394818,38.4004527 238.948257,38.2504978 C237.935875,37.8643309 237.399207,37.983764 237.25212,38.2823467 C237.519792,38.0116317 235.25651,43.857217 235.135925,44.1239509 L235.135925,44.129259 C235.076295,44.2500191 234.986188,44.51808 234.603232,45.255911 C233.442439,47.4627687 231.804607,49.1308506 229.215349,49.1308506 C226.953392,49.1308506 226.357094,46.9545146 226.893762,44.8989388 C229.422065,47.0739477 233.82937,44.6003561 233.82937,41.0518669 C233.82937,39.2643519 232.252493,38.1907813 230.495402,38.1907813 C227.792184,38.1907813 225.530227,41.1102564 224.81997,44.1120076 C224.81732,44.1173157 224.81202,44.1186427 224.810695,44.1239509 L224.304504,45.255911 C223.26297,47.6100695 222.279741,49.1308506 221.802703,49.1308506 C221.446249,49.1308506 221.268685,48.8017461 221.268685,47.9962364 C221.268685,45.5836884 222.697149,41.2031488 222.697149,41.1407782 C222.785932,40.8169818 222.756779,40.5157451 222.459955,40.3657902 C221.684768,40.0101451 219.243922,38.7282301 219.243922,38.1310648 C219.540746,37.0269724 219.09551,35.687995 217.905564,35.6561461 C216.685141,35.6282784 215.731064,37.1464055 218.113606,38.9976181 C217.578263,40.7254165 216.952812,42.4240202 216.327362,43.9142795 C216.308811,43.9567446 216.29556,43.9846123 216.282308,44.01248 C216.279658,44.0217692 216.273033,44.0244233 216.269057,44.0337125 C215.019482,46.9545146 213.797734,49.1003288 213.231913,49.1003288 C212.875459,49.1003288 212.695245,48.8017461 212.695245,47.9962364 C212.695245,46.775365 213.082176,44.9560013 213.559214,43.1990081 L213.559214,43.1698133 C213.916993,41.8865713 214.363554,40.5754616 214.810115,39.2643519 C214.839267,39.1449188 214.900222,39.0573346 214.92805,38.9379015 C215.137416,38.3420632 215.375936,37.7143761 215.583977,37.1464055 C215.911279,36.2546385 216.23858,35.4199341 216.565881,34.6144244 C216.894508,33.8102417 217.219159,33.0644485 217.518633,32.3491771 C219.393659,32.3796989 222.934344,32.4686102 223.857943,33.2435981 L223.917573,33.2435981 C224.036832,33.2435981 224.036832,33.2144034 224.036832,33.124165 C224.036832,31.724144 221.268685,31.1853682 218.084453,31.0659351 C218.531014,29.9950186 219.393659,28.5021052 219.66133,28.5021052 C219.811067,28.5021052 219.898524,28.3269367 219.898524,28.2672202 C219.898524,27.9062669 218.827838,27.1034112 218.263343,27.1034112 C217.845934,27.1034112 216.655989,29.1297923 215.851649,31.0380674 C212.250009,31.1256517 208.827259,31.5741892 208.827259,31.840923 C208.827259,31.8727719 208.827259,31.9032936 208.856411,31.9311614 C209.541491,32.6756275 209.659426,32.8574312 210.017204,32.8574312 C210.017204,32.8574312 212.012815,32.4686102 215.256676,32.3796989 C214.482814,34.1964086 213.678474,36.2838333 212.935089,38.489364 C212.935089,38.5198858 212.905937,38.5198858 212.905937,38.5198858 C212.727047,39.0254858 212.517681,39.7128894 212.279161,40.5157451 C211.387365,43.4365472 210.40281,47.7321566 211.327735,49.0711341 C211.476147,49.3100002 211.803448,49.6364506 212.161227,49.9058385 C212.517681,50.1752265 212.875459,50.3835708 213.202761,50.4711551 C213.292868,50.5030039 213.409477,50.5308716 213.50091,50.5308716 C214.273447,50.5308716 215.792019,48.6239236 217.249636,44.480923 C217.755827,43.079575 218.292495,41.4406879 218.858316,39.5032181 C219.84022,40.1295782 220.791646,40.5157451 220.822124,40.5157451 C220.435193,41.8587036 219.511593,45.1059561 219.511593,47.3433356 C219.511593,48.0864748 219.630853,48.7141619 219.898524,49.1003288 C220.019109,49.3100002 220.285455,49.5767341 220.58493,49.8156002 C220.941383,50.0849881 221.446249,50.4432873 221.863657,50.5308716 L222.071699,50.5308716 C222.816409,50.5308716 223.769161,49.1905671 224.482068,47.7321566 C224.545673,47.6047614 224.629155,47.4203036 224.717937,47.2172674 C225.103543,49.1122721 226.4366,50.5613934 229.155719,50.5613934 C231.833759,50.5613934 234.536977,48.600037 236.064825,44.6667078 C236.072775,44.6534375 236.084701,44.6468023 236.091327,44.6322049 C236.296718,44.1239509 236.834712,42.4240202 237.340902,40.8740443 C236.655822,43.1698133 235.733548,46.5059771 235.31614,49.6364506 C235.31614,50.4114385 237.310425,50.7100212 237.340902,50.4711551 C237.340902,50.1752265 237.310425,50.0252716 237.995505,48.7738784 C239.394818,46.0600936 242.698308,40.6351782 243.412541,40.2184894 C242.845395,42.0657209 241.357301,47.5211582 242.430637,49.1003288 C242.698308,49.5170175 243.412541,50.0849881 243.917407,50.3238543 C245.07555,50.9913524 246.268146,49.2131267 247.189095,47.2836191 C247.452791,49.145448 248.384341,50.5613934 250.079152,50.5613934 C251.29825,50.5613934 252.698888,48.953028 253.978941,47.2239026 C253.978941,48.058607 254.096875,48.6823131 254.393699,49.1003288 C254.633544,49.457301 255.913597,50.5308716 256.687459,50.5308716 C257.877404,50.5308716 259.723278,46.269765 260.318251,44.480923 C260.465338,44.0642343 259.455606,43.7656517 259.305869,44.1239509 L258.830156,45.255911 C257.758145,47.6100695 256.774916,49.2502837 256.300528,49.2502837 C255.941424,49.2502837 255.762534,48.833595 255.762534,47.9962364 C255.762534,44.5101178 258.830156,35.0005913 262.222429,28.6533871 C262.372166,28.4145209 262.908834,27.3104286 263.146028,27.3104286 C263.265288,27.3104286 263.503807,27.1909955 263.35407,26.9242616 M231.059897,39.1449188 C231.864237,39.1449188 232.162386,39.8323225 232.162386,40.4560286 C232.162386,44.6322049 228.114185,45.7933598 227.189261,43.7351299 C227.936621,41.4698826 229.513498,39.1449188 231.059897,39.1449188 M249.989045,49.1308506 C248.202801,49.1308506 249.603439,39.1449188 253.500577,39.1449188 C254.156505,39.1449188 254.752803,39.8004737 254.811108,40.5157451 C254.991322,43.1100968 251.865396,49.1308506 249.989045,49.1308506" id="Fill-6" fill="#000104"></path>
                    <path d="M245.496139,11.3154209 C245.734658,10.6890608 246.061959,9.85302929 246.300478,9.19747444 C246.536347,9.0793684 246.566825,8.96126236 246.476717,8.81130751 C246.210371,8.45433533 245.168837,8.00712483 244.662646,8.1265579 C244.483757,8.15442562 244.364497,8.45433533 243.621113,10.4807164 C243.650265,11.0752277 245.020425,11.4043322 245.496139,11.3154209" id="Fill-8" fill="#000104"></path>
                    <path d="M269.12809,18.2901795 C268.234968,20.526232 266.538831,23.8942446 265.824599,23.1789732 C265.020259,22.4331801 266.687243,16.2624714 267.401476,13.9680294 C267.549888,13.5805354 267.372323,13.1638467 267.01587,12.9846971 C266.508354,12.6861144 265.853751,12.35701 265.734492,12.35701 C264.544546,12.35701 260.555975,18.5887622 259.901372,19.6012892 C260.407563,17.5749081 261.091318,15.3972451 261.775073,13.4597753 C261.895658,13.4319076 262.014917,13.2832798 261.895658,13.1041302 C261.687616,12.865264 261.181425,12.5680084 260.734864,12.4180535 C259.722483,12.0305596 259.18714,12.1499927 259.038728,12.4485753 C259.306399,12.1791874 257.043117,18.0221186 256.925183,18.2901795 C255.824019,20.7027276 254.929572,21.7457764 253.53291,21.7457764 C255.464915,18.1110299 255.227721,12.35701 251.388888,12.35701 C248.710847,12.35701 247.698466,16.7402037 247.638836,16.7693984 C247.245279,17.2683633 246.94713,17.7779444 246.719212,18.2875255 C246.717887,18.2888525 246.716562,18.2888525 246.716562,18.2901795 C245.376879,21.3901312 244.483757,23.2957522 243.709895,23.2957522 C243.353441,23.2957522 243.174552,22.9998236 243.174552,22.1651192 C243.174552,21.419326 243.321639,20.4665155 243.531005,19.4221396 C243.948414,17.337369 244.691799,14.9805564 245.228467,13.4597753 C245.376879,13.4597753 245.525291,13.2832798 245.376879,13.1041302 C245.020425,12.5374866 242.84725,11.7624987 242.519949,12.4485753 C242.786296,12.1791874 240.525664,18.0221186 240.405079,18.2901795 C239.008417,21.6887139 237.847623,23.9260934 237.102913,23.1789732 C236.298574,22.4331801 237.965558,16.2624714 238.678465,13.9680294 C238.829527,13.5805354 238.649313,13.1638467 238.292859,12.9846971 C237.786668,12.6861144 237.132066,12.35701 237.012806,12.35701 C235.94212,12.35701 232.727411,17.1874142 231.179687,19.6012892 C233.083865,11.9403213 237.757516,1.50850604 238.500901,1.50850604 C238.649313,1.50850604 238.738095,1.32935643 238.738095,1.2696399 C238.738095,0.911340682 237.668734,0.107158005 237.102913,0.107158005 C236.216417,0.107158005 231.764059,9.39639685 229.47825,18.345915 C228.762692,19.9728588 228.016657,20.0219591 227.132811,20.0790215 C226.923444,19.0054509 226.566991,17.8734908 226.566991,16.2929932 C226.566991,14.9805564 226.834662,13.640252 227.727784,12.5680084 C227.756937,12.5374866 227.756937,12.5069648 227.756937,12.4485753 C227.756937,11.969516 226.447731,11.2250499 226.00117,11.2250499 C225.852758,11.2250499 225.525457,11.6735874 225.196831,12.35701 C224.721117,13.3721911 224.542228,14.2958068 223.679584,16.5318593 C223.589476,16.8277879 223.142915,17.9305533 222.965351,18.3498961 C222.961376,18.3578583 222.964026,18.3631664 222.961376,18.3711286 C222.82224,18.7121764 222.639375,19.1328462 222.430008,19.5853648 C221.869488,19.6888735 221.328844,19.9383559 220.821329,20.4359937 C220.643764,20.6151433 220.761699,20.7650982 220.880958,20.6443381 C221.290416,20.3484094 221.725051,20.2011087 222.171612,20.136084 C222.008624,20.4731507 221.835035,20.8141984 221.660121,21.1433029 C221.660121,21.1141081 221.654821,21.0915486 221.654821,21.0623538 C221.654821,20.8540094 221.536886,20.7650982 221.417627,20.7650982 C221.298367,20.7650982 221.179107,20.8540094 221.179107,21.0623538 L221.179107,21.1817869 C221.179107,21.4405585 221.202959,21.6741165 221.233437,21.9023664 C220.756398,22.703895 220.295261,23.2957522 219.989162,23.2957522 C218.678631,23.2957522 220.048791,17.6943412 221.298367,14.2666121 C221.448104,14.2666121 221.506409,14.1153302 221.506409,14.0277459 C221.506409,13.7278362 220.316463,13.0444136 219.750642,13.1638467 C219.542601,13.1930415 219.512123,13.3721911 219.453819,13.4916241 C218.857521,12.7445039 217.756357,12.35701 216.863235,12.35701 C213.839342,12.35701 211.888785,15.2486173 211.211656,18.23179 C211.201055,18.2530226 211.187804,18.2662929 211.178528,18.2901795 C210.196624,20.6748598 208.916571,22.4331801 206.29816,22.3442688 L206.269008,22.313747 C208.113556,14.2347633 209.357831,9.49725144 209.954129,9.49725144 C210.102541,9.49725144 210.191323,9.34729659 210.191323,9.28890709 C210.162171,8.96112966 209.78054,8.09457638 209.21472,8.09457638 C208.619747,8.09457638 207.191282,11.7624987 205.940382,16.2624714 C203.320646,25.6233701 202.546784,32.9552336 203.291493,33.9093711 C203.381601,34.0885207 204.333027,34.9510929 204.869695,34.9510929 C205.940382,34.9510929 208.202338,28.9900556 208.231491,26.4262257 C208.202338,25.3845039 207.934667,24.3122604 207.399324,23.5054236 C208.752258,23.0608672 209.926302,22.7304357 210.971811,21.1990383 C211.129499,23.1803003 211.992143,24.7289491 213.679004,24.7289491 C215.076991,24.7289491 216.863235,22.4637018 217.66625,21.3012199 C217.66625,21.9275801 217.727205,22.7609575 218.083658,23.2665575 C218.381807,23.715095 219.304082,24.4900829 219.958684,24.6692325 C220.048791,24.7010814 220.168051,24.7010814 220.256833,24.7010814 C220.706044,24.7010814 221.224161,24.1888462 221.736977,23.4377449 C222.293522,24.3441092 223.193269,24.7581438 224.096992,24.7581438 C225.703021,24.7581438 227.310376,23.5372724 227.310376,21.5984756 C227.310376,21.3901312 227.310376,21.2123087 227.281223,21.030505 C227.828492,21.0583727 228.394313,20.9946751 228.924355,20.7133438 C228.703063,21.7670089 228.517548,22.8034226 228.382387,23.8066604 C228.382387,24.3998446 229.572333,24.7289491 230.136828,24.7289491 C230.286565,24.7289491 230.405825,24.7010814 230.405825,24.6387108 C230.405825,24.3998446 230.375347,24.2804115 230.763603,23.5054236 C231.953549,21.0623538 235.732753,14.8319286 236.477463,14.3847181 C235.911643,16.2040819 234.423548,21.6887139 235.495559,23.2665575 C235.763231,23.6845732 236.477463,24.2525438 236.983654,24.4900829 C238.630761,25.462799 240.336173,21.7139276 241.353855,18.8037417 C241.35518,18.8010877 241.357831,18.7997606 241.359156,18.7971066 C241.567197,18.230463 242.28143,16.054127 242.84725,14.3263286 C242.40069,15.7847391 241.865346,17.6943412 241.59635,19.4221396 C241.359156,21.0915486 241.299526,22.5818079 241.805717,23.2665575 C242.103866,23.7442898 243.263334,24.7010814 243.977566,24.7010814 C244.763355,24.7010814 245.583596,23.6022971 246.354808,22.0284346 C246.790768,23.6089323 247.99529,24.7289491 249.512537,24.7289491 C250.824392,24.7289491 251.954708,23.9831559 252.817352,22.8803906 C255.178692,22.8803906 256.793997,21.498948 257.867334,18.8103769 C257.868659,18.8050688 257.873959,18.8024147 257.876609,18.7971066 C257.88456,18.777201 257.896486,18.7440252 257.905762,18.7201386 C257.915038,18.6949249 257.926963,18.6736924 257.937564,18.6484787 C257.938889,18.6444976 257.936239,18.6418436 257.937564,18.6378625 C258.176084,18.0035402 258.662398,16.4655076 259.12751,15.0416 C258.441105,17.337369 257.520156,20.6748598 257.104072,23.8066604 C257.104072,24.5789942 259.098358,24.8762499 259.12751,24.6387108 C259.12751,24.3401281 259.098358,24.1901732 259.782113,22.9401071 C261.181425,20.2276493 264.484916,14.8027339 265.199148,14.3847181 C264.632003,16.2332766 263.146558,21.6887139 264.217244,23.2665575 C264.484916,23.6845732 265.199148,24.2525438 265.705339,24.4900829 C267.461105,25.503937 269.306979,20.8832042 270.140471,18.6484787 C270.348513,18.0818352 269.306979,17.8734908 269.12809,18.2901795 L269.12809,18.2901795 Z M204.719958,33.5205501 C204.542394,33.046799 205.314931,25.0872483 206.000011,23.3581228 C208.113556,25.3845039 205.04726,33.3135328 204.719958,33.5205501 L204.719958,33.5205501 Z M213.619374,23.2957522 C213.113184,23.2957522 212.874664,22.5220913 212.874664,21.3901312 C212.874664,18.4693291 214.452866,13.3124745 217.280644,13.3124745 C217.935246,13.3124745 218.530219,13.9680294 218.560697,14.6833008 C218.678631,17.2749984 215.465248,23.2957522 213.619374,23.2957522 L213.619374,23.2957522 Z M224.661488,16.7096819 C224.661488,17.2471307 225.108048,18.5290457 225.406197,19.8680231 C224.824476,19.7499171 224.244079,19.6185407 223.674283,19.5588241 C223.800168,19.2323738 223.912802,18.9245018 224.006885,18.6484787 C224.009535,18.6391895 224.004235,18.6299003 224.00556,18.620611 L224.096992,18.3498961 L224.661488,16.7096819 Z M222.114633,22.8458877 C222.598297,22.0310887 223.058109,21.0583727 223.433114,20.1573165 C224.128795,20.2621522 224.835076,20.4784588 225.525457,20.6748598 C225.583762,21.0026373 225.583762,21.3012199 225.583762,21.5692808 C225.583762,23.8013522 223.148216,24.4489449 222.114633,22.8458877 L222.114633,22.8458877 Z M249.097778,23.326274 C247.281057,23.326274 247.519576,20.3152336 248.024442,19.4221396 C248.591588,20.7942929 249.723229,21.8068199 251.000631,22.3734635 C250.466613,22.9693018 249.841163,23.326274 249.097778,23.326274 L249.097778,23.326274 Z M251.687037,21.3317417 C249.038148,20.1082163 248.024442,16.947221 250.705133,16.947221 C250.882697,16.947221 251.000631,16.9790698 251.000631,16.9790698 C251.150368,16.947221 251.180846,16.7999202 251.180846,16.7402037 L251.150368,16.6207706 C250.882697,16.2929932 250.079682,16.054127 249.662274,15.9652157 L249.662274,15.936021 C249.631796,15.6374383 250.705133,13.3124745 251.98386,13.3124745 C253.175131,13.3124745 253.202958,18.3777638 251.687037,21.3317417 L251.687037,21.3317417 Z" id="Fill-10" fill="#000104"></path>
                    <path d="M206.908902,19.483714 C208.81308,11.8240731 213.594065,1.50770982 214.33745,1.50770982 C214.487187,1.50770982 214.575969,1.32856021 214.575969,1.27017071 C214.575969,0.911871496 213.503957,0.106361785 212.938137,0.106361785 C211.867451,0.106361785 205.586446,13.6699775 204.21761,23.8058641 C204.21761,24.4003754 204.849686,24.7294799 205.415507,24.7294799" id="Fill-12" fill="#000104"></path>
                    <path d="M208.989717,12.4506986 L208.948639,12.4599878 C206.273248,20.3014324 204.840808,24.988517 205.346999,25.301697 C205.474209,25.379992 205.471559,25.5538335 205.441081,25.6055878 C205.24364,25.8696676 204.693721,26.3075889 204.212708,26.0090062 C203.706517,25.6958261 205.533839,20.0320445 206.034729,17.0196771 C208.585559,9.7209894 211.376234,1.45091276 212.510525,1.03289701 C212.678814,0.926734278 213.94429,0.693176273 214.400127,0.977161575 C215.310475,1.54115108 214.101978,7.80209806 212.779522,9.99701249 C212.207076,10.8688739 211.415987,11.6412078 210.536116,12.0419721 M213.521581,2.11442982 C213.118749,2.4249558 209.595291,9.60288336 209.269314,11.4315364 C212.130219,10.8224277 213.68987,2.46476682 213.521581,2.11442982" id="Fill-14" fill="#000104"></path>
                    <path d="M104.996411,43.0333942 C101.218532,45.8785554 95.8598013,48.467599 89.5801211,50.0135937 C85.5425213,51.0062152 81.5844279,51.4560798 77.9907388,51.4560798 C73.8153279,51.4560798 70.1302065,50.8482982 67.3898861,49.791979 C64.6442652,48.7356598 62.8712726,47.2321302 62.4379627,45.4963696 C62.3584563,45.1818625 62.3187031,44.8567391 62.3187031,44.5196724 C62.3094274,42.014232 64.530306,38.8771234 68.3598641,36.0094026 C72.1827966,33.1363738 77.5892315,30.5221165 83.8768623,28.9761218 C87.8588076,27.9967706 91.7466704,27.5535412 95.2780795,27.5535412 L95.2807297,27.5535412 C99.4627661,27.5535412 103.143912,28.1745932 105.880257,29.2468367 C108.620578,30.3190803 110.39092,31.8398614 110.82688,33.5888924 C110.907712,33.9087076 110.947465,34.2404661 110.947465,34.5828409 C110.956741,37.0829732 108.779591,40.1908871 104.996411,43.0333942 L104.996411,43.0333942 Z M158.292199,20.0531444 L144.212941,34.5257785 L130.932723,20.0531444 L113.026557,20.0531444 L114.786299,21.7092829 C110.026516,18.988863 103.481814,17.5065659 96.1115715,17.5052388 C91.4392457,17.5052388 86.4303427,18.0997501 81.3233819,19.3577785 C66.1734382,23.0947066 54.5191257,31.551895 51.1493796,40.3912693 L51.1493796,19.923095 L36.8276275,19.923095 L36.8117263,43.9769155 C36.4459968,46.991937 32.8456822,50.726211 26.0823381,50.8642226 C25.9856054,50.8655496 25.8888726,50.8668766 25.7921398,50.8668766 C18.746548,50.8788199 15.6537492,45.5401617 15.3251228,43.7937848 L15.2933202,43.6252514 L0.000265021319,43.6252514 L0.0890471632,43.8959664 C2.125736,50.1330268 6.90804571,60.176021 26.0319841,60.176021 L26.0876386,60.176021 C34.6716791,60.176021 40.9222069,58.4853795 45.0446135,55.8711223 C48.0274285,53.9800987 49.886553,51.5927643 50.6869174,49.0236262 C53.1463153,57.0588178 63.6570608,61.7459024 76.7769412,61.7485564 C81.449267,61.7485564 86.45817,61.1527181 91.5651308,59.8973438 C109.617058,55.4438173 122.706461,44.2887685 122.731638,33.7720231 C122.731638,32.7674583 122.611053,31.7708556 122.363258,30.7888504 C122.077035,29.6621984 121.630474,28.6032252 121.050078,27.6066226 L137.04809,42.6684598 L137.04809,59.3904168 L151.369842,59.3904168 L151.369842,42.6684598 L175.391374,20.0531444 L158.292199,20.0531444 Z" id="Fill-16" fill="#000104"></path>
                    <path d="M174.997022,48.2274058 C173.808402,47.1896651 173.290285,46.1519244 173.290285,45.1447055 C173.290285,43.9848777 174.052221,43.0692241 175.210364,43.0692241 C176.368508,43.0692241 177.069489,43.8322688 177.069489,44.9615748 C177.069489,46.3350551 176.58185,47.3117522 174.997022,48.2274058 L174.997022,48.2274058 Z M177.008534,57.0482016 C176.277075,57.841768 175.332274,58.269073 174.204609,58.269073 C172.497871,58.269073 171.492115,57.2008105 171.492115,55.4000252 C171.492115,54.0570667 172.223574,53.1108913 173.168375,52.3783685 L177.008534,57.0482016 Z M177.099966,50.3334089 C180.391531,48.8378415 181.610629,47.0370562 181.610629,44.7174005 C181.610629,41.665222 179.081001,39.7423496 175.332274,39.7423496 C170.913044,39.7423496 168.474848,41.9399181 168.474848,45.4194016 C168.474848,47.2201869 169.328216,48.8073197 170.882566,50.1502782 C168.231028,51.1880189 166.585246,53.1414131 166.585246,55.7357648 C166.585246,59.4899444 169.053919,61.7485564 173.320762,61.7485564 C175.423707,61.7485564 177.557128,61.107599 179.111478,59.5815097 L180.574396,61.382295 L186.426067,61.382295 L182.463998,56.7124619 C183.774528,55.1253291 185.024104,52.6225428 185.66413,49.6619297 L181.519197,49.2346247 C181.275377,50.5775832 180.696306,52.2868031 179.93437,53.6908052 L177.099966,50.3334089 Z" id="Fill-18" fill="#000000"></path>
                </g>
            </g>
        </g>
    </g>
</svg>