<?xml version="1.0" encoding="UTF-8" standalone="no"?>
<svg width="593px" height="601px" viewBox="0 0 593 601" version="1.1" xmlns="http://www.w3.org/2000/svg" xmlns:xlink="http://www.w3.org/1999/xlink">
    <!-- Generator: Sketch 43.2 (39069) - http://www.bohemiancoding.com/sketch -->
    <title>Page 1</title>
    <desc>Created with Sketch.</desc>
    <defs>
        <polygon id="path-1" points="593.361807 600.649899 593.361807 0.813820036 0.871809037 0.813820036 0.871809037 600.649899"></polygon>
    </defs>
    <g id="Page-1" stroke="none" stroke-width="1" fill="none" fill-rule="evenodd">
        <g id="joy-fashion-trend-nyito" transform="translate(-237.000000, -1700.000000)">
            <g id="Page-1" transform="translate(236.000000, 1700.000000)">
                <g id="Group-3" transform="translate(0.560245, 0.080421)">
                    <mask id="mask-2" fill="white">
                        <use xlink:href="#path-1"></use>
                    </mask>
                    <g id="Clip-2"></g>
                    <polygon id="Stroke-1" stroke="#000104" stroke-width="4" mask="url(#mask-2)" points="0.871809037 600.649899 593.754444 600.649899 593.754444 0.813820036 0.871809037 0.813820036"></polygon>
                </g>
                <g id="Group-20" transform="translate(36.619735, 122.203554)" fill="#000104">
                    <path d="M333.143498,443.119437 C338.650755,443.119437 342.008839,439.783619 343.290078,434.562338 L340.324631,433.888959 C339.219047,438.177868 336.904552,440.270524 333.164163,440.270524 C328.245861,440.270524 325.125427,436.282046 325.125427,429.278899 C325.125427,422.741938 328.194199,418.598065 333.102167,418.598065 C336.935549,418.598065 338.754081,420.638922 339.890663,424.627401 L342.887107,423.819346 C341.678197,418.939934 338.733416,415.718072 333.143498,415.718072 C326.540988,415.718072 321.963661,421.06367 321.963661,429.320338 C321.963661,437.939595 326.447995,443.119437 333.143498,443.119437 L333.143498,443.119437 Z M359.543204,442.611813 L376.436949,442.611813 L376.436949,439.783619 L362.663639,439.783619 L362.663639,430.169832 L372.355586,430.169832 L372.355586,427.341638 L362.663639,427.341638 L362.663639,419.105689 L375.682672,419.105689 L375.682672,416.204978 L359.543204,416.204978 L359.543204,442.611813 Z M392.380098,442.611813 L395.335212,442.611813 L395.335212,421.167266 L395.397208,421.167266 L409.749142,442.611813 L412.569932,442.611813 L412.569932,416.204978 L409.604486,416.204978 L409.604486,437.090101 L409.542491,437.090101 L395.68652,416.204978 L392.380098,416.204978 L392.380098,442.611813 Z M436.665476,442.611813 L439.785911,442.611813 L439.785911,419.105689 L448.19662,419.105689 L448.19662,416.204978 L428.296098,416.204978 L428.296098,419.105689 L436.665476,419.105689 L436.665476,442.611813 Z M463.933118,442.611813 L480.847528,442.611813 L480.847528,439.783619 L467.063885,439.783619 L467.063885,430.169832 L476.7455,430.169832 L476.7455,427.341638 L467.063885,427.341638 L467.063885,419.105689 L480.103584,419.105689 L480.103584,416.204978 L463.933118,416.204978 L463.933118,442.611813 Z M496.770012,442.611813 L499.880115,442.611813 L499.880115,431.22652 L505.831673,431.22652 L512.124205,442.611813 L515.533952,442.611813 L509.055433,430.832852 C512.806155,430.066235 515.192978,427.838903 515.192978,423.591432 C515.192978,418.732741 511.803896,416.204978 505.831673,416.204978 L496.770012,416.204978 L496.770012,442.611813 Z M499.880115,428.450124 L499.880115,419.06425 L505.604356,419.06425 C509.809711,419.06425 512.082875,420.234895 512.082875,423.715749 C512.082875,427.320919 509.76838,428.450124 505.635354,428.450124 L499.880115,428.450124 Z" id="Fill-4"></path>
                    <path d="M470.858003,210.188152 C469.235791,207.173484 462.736607,202.521986 458.324601,202.521986 C452.755348,202.521986 428.618474,250.673798 410.288502,306.294943 C406.806427,301.871358 398.220065,298.141872 390.79095,298.141872 C365.889466,298.141872 350.380284,321.534039 345.658302,345.288795 C338.611492,362.724143 325.716449,388.126089 320.240189,382.625097 C313.968322,376.792595 326.96669,328.640782 332.535943,310.708169 C333.703523,307.693501 332.308626,304.44056 329.508501,303.042002 C325.571793,300.711073 320.467506,298.141872 319.527242,298.141872 C310.258931,298.141872 279.157907,346.790949 274.053619,354.695388 C278.00066,338.87615 283.332264,321.875908 288.663868,306.761129 C289.593799,306.522856 290.52373,305.372931 289.593799,303.974374 C287.971586,302.109631 284.034878,299.778702 280.552803,298.608058 C272.658723,295.593389 268.474034,296.525761 267.327119,298.85669 C269.414297,296.743314 251.766275,342.377724 250.826011,344.46002 L250.826011,344.501459 C250.361046,345.44419 249.658431,347.536846 246.67232,353.296831 C237.620992,370.524986 224.84994,383.547109 204.660106,383.547109 C187.022416,383.547109 182.372762,366.557227 186.557451,350.510076 C206.271987,367.489598 240.638101,348.179147 240.638101,320.477351 C240.638101,306.522856 228.342348,298.141872 214.641365,298.141872 C193.562931,298.141872 175.925241,320.933177 170.386985,344.366783 C170.36632,344.408222 170.32499,344.418581 170.314657,344.46002 L166.367617,353.296831 C158.24622,371.674911 150.579456,383.547109 146.859732,383.547109 C144.080272,383.547109 142.695708,380.977907 142.695708,374.689579 C142.695708,355.855673 153.834214,321.658355 153.834214,321.17145 C154.526496,318.643687 154.29918,316.292039 151.984685,315.121394 C145.940134,312.344999 126.907548,302.337544 126.907548,297.675686 C129.222042,289.056429 125.7503,278.603507 116.471656,278.354875 C106.955363,278.137321 99.5159152,289.9888 118.093869,304.44056 C113.919512,317.928869 109.042541,331.189265 104.16557,342.82319 C104.020914,343.1547 103.917588,343.372253 103.814263,343.589807 C103.793597,343.662324 103.741935,343.683044 103.710937,343.755562 C93.9673272,366.557227 84.4407014,383.308836 80.0286958,383.308836 C77.2492355,383.308836 75.8440065,380.977907 75.8440065,374.689579 C75.8440065,365.158669 78.8611158,350.955542 82.5808396,337.23932 L82.5808396,337.011407 C85.3706324,326.993592 88.8527071,316.758224 92.3347818,306.522856 C92.5620983,305.590485 93.0373963,304.906746 93.2543802,303.974374 C94.8869256,299.322876 96.7467875,294.422745 98.3690003,289.9888 C100.921144,283.027092 103.473288,276.510851 106.025432,270.222523 C108.587908,263.944554 111.119387,258.122411 113.454547,252.538542 C128.075128,252.776814 155.683744,253.470913 162.885542,259.520969 L163.350508,259.520969 C164.280439,259.520969 164.280439,259.293056 164.280439,258.588597 C164.280439,247.65913 142.695708,243.453098 117.866552,242.520727 C121.348627,234.160462 128.075128,222.505817 130.162306,222.505817 C131.329886,222.505817 132.011835,221.138339 132.011835,220.672153 C132.011835,217.854319 123.663122,211.58671 119.261449,211.58671 C116.00669,211.58671 106.728046,227.405947 100.456179,242.303173 C72.3722644,242.986913 45.6832465,246.488486 45.6832465,248.570782 C45.6832465,248.819415 45.6832465,249.057688 45.9105629,249.275241 C51.2524995,255.087024 52.1720979,256.506301 54.9618907,256.506301 C54.9618907,256.506301 70.5227351,253.470913 95.8168566,252.776814 C89.782638,266.959222 83.5107705,283.255005 77.714201,300.472801 C77.714201,300.711073 77.4868845,300.711073 77.4868845,300.711073 C76.0919881,304.658113 74.4594427,310.02443 72.5995808,316.292039 C65.6457639,339.093704 57.9686674,372.628002 65.1807985,383.080923 C66.3380458,384.945666 68.8901896,387.494149 71.6799825,389.597164 C74.4594427,391.70018 77.2492355,393.326651 79.8013793,394.01039 C80.5039938,394.259022 81.4132596,394.476576 82.1262066,394.476576 C88.1500926,394.476576 99.9912132,379.589709 111.357036,347.246775 C115.304076,336.306949 119.488765,323.512739 123.900771,308.387599 C131.557202,313.27737 138.975985,316.292039 139.213634,316.292039 C136.196524,326.776039 128.994726,352.126186 128.994726,369.592614 C128.994726,375.394037 129.924657,380.294168 132.011835,383.308836 C132.952099,384.945666 135.028944,387.027963 137.364104,388.892706 C140.143565,390.995722 144.080272,393.792837 147.33503,394.476576 L148.957243,394.476576 C154.764145,394.476576 162.19326,384.013295 167.752181,372.628002 C168.248144,371.633472 168.899096,370.193476 169.591378,368.608444 C172.598154,383.402073 182.992716,394.714849 204.195141,394.714849 C225.077257,394.714849 246.155691,379.403235 258.06914,348.697131 C258.131135,348.593534 258.224128,348.541736 258.275791,348.427779 C259.877339,344.46002 264.072361,331.189265 268.019401,319.089153 C262.677464,337.011407 255.485998,363.055653 252.23124,387.494149 C252.23124,393.544204 267.781752,395.875133 268.019401,394.01039 C268.019401,391.70018 267.781752,390.529536 273.123689,380.760354 C284.034878,359.574799 309.793965,317.22441 315.363218,313.971469 C310.94088,328.39215 299.337408,370.980812 307.706787,383.308836 C309.793965,386.561777 315.363218,390.995722 319.299926,392.860465 C328.330589,398.071386 337.629898,384.189409 344.811031,369.126428 C346.867212,383.661065 354.131006,394.714849 367.346358,394.714849 C376.852318,394.714849 387.773841,382.158911 397.755099,368.660243 C397.755099,375.176484 398.674698,380.045536 400.989192,383.308836 C402.859387,386.095591 412.840646,394.476576 418.874864,394.476576 C428.153508,394.476576 442.546773,361.21163 447.186095,347.246775 C448.33301,343.993834 440.459594,341.662905 439.292014,344.46002 L435.582623,353.296831 C427.223577,371.674911 419.556813,384.47948 415.857755,384.47948 C413.057629,384.47948 411.662733,381.22654 411.662733,374.689579 C411.662733,347.474688 435.582623,273.237191 462.033992,223.686821 C463.201572,221.822078 467.386261,213.20282 469.235791,213.20282 C470.165722,213.20282 472.025583,212.270449 470.858003,210.188152 M219.043038,305.590485 C225.314906,305.590485 227.639733,310.956801 227.639733,315.825853 C227.639733,348.427779 196.073744,357.492503 188.861613,341.424633 C194.68918,323.740652 206.984934,305.590485 219.043038,305.590485 M366.643743,383.547109 C352.715444,383.547109 363.636966,305.590485 394.025043,305.590485 C399.139663,305.590485 403.789318,310.708169 404.243951,316.292039 C405.64918,336.545221 381.274657,383.547109 366.643743,383.547109" id="Fill-6"></path>
                    <path d="M331.610145,88.3354739 C333.470007,83.4457029 336.022151,76.9191018 337.882013,71.8014178 C339.721209,70.8794059 339.958858,69.957394 339.256244,68.7867496 C337.179398,65.9999946 329.058001,62.508781 325.110961,63.4411525 C323.716065,63.6587059 322.786134,65.9999946 316.989564,81.8192324 C317.216881,86.460371 327.900754,89.0295727 331.610145,88.3354739" id="Fill-8"></path>
                    <path d="M515.881126,142.784938 C508.916977,160.241006 495.691293,186.533885 490.122039,180.950015 C483.850172,175.127873 496.84854,126.955341 502.417793,109.043447 C503.57504,106.018419 502.190477,102.765478 499.411016,101.366921 C495.453644,99.0359917 490.349356,96.46679 489.419425,96.46679 C480.140781,96.46679 449.039757,145.115867 443.93547,153.020306 C447.88251,137.201069 453.214114,120.200827 458.545718,105.075688 C459.485981,104.858134 460.415912,103.69785 459.485981,102.299292 C457.863769,100.434549 453.916728,98.1139798 450.434654,96.9433355 C442.540573,93.9183077 438.366217,94.8506793 437.208969,97.1816083 C439.296147,95.0785923 421.648125,140.692282 420.728526,142.784938 C412.142164,161.618844 405.167682,169.761556 394.277158,169.761556 C409.342039,141.386381 407.492509,96.46679 377.559066,96.46679 C356.67695,96.46679 348.78287,130.684827 348.317904,130.91274 C345.249132,134.807982 342.924305,138.7861 341.147103,142.764219 C341.136771,142.774579 341.126438,142.774579 341.126438,142.784938 C330.680214,166.985161 323.716065,181.861668 317.681846,181.861668 C314.902386,181.861668 313.507489,179.551458 313.507489,173.035217 C313.507489,167.213074 314.654404,159.774821 316.28695,151.621749 C319.541708,135.346685 325.338277,116.947886 329.522967,105.075688 C330.680214,105.075688 331.837461,103.69785 330.680214,102.299292 C327.900754,97.8757071 310.955346,91.8256515 308.403202,97.1816083 C310.480048,95.0785923 292.85269,140.692282 291.912427,142.784938 C281.021902,169.31609 271.970574,186.782518 266.163672,180.950015 C259.891805,175.127873 272.890173,126.955341 278.449093,109.043447 C279.627006,106.018419 278.221777,102.765478 275.442316,101.366921 C271.495276,99.0359917 266.390989,96.46679 265.461058,96.46679 C257.112344,96.46679 232.045539,134.176041 219.977102,153.020306 C234.825,93.2138492 271.26796,11.7763711 277.064529,11.7763711 C278.221777,11.7763711 278.914059,10.3778137 278.914059,9.91162793 C278.914059,7.11451318 270.575678,0.836544505 266.163672,0.836544505 C259.251185,0.836544505 224.533764,73.3543344 206.710088,143.220045 C201.130502,155.921018 195.313267,156.304326 188.421446,156.749793 C186.7889,148.368808 184.00944,139.531998 184.00944,127.193614 C184.00944,116.947886 186.096618,106.484605 193.060768,98.1139798 C193.288084,97.8757071 193.288084,97.6374344 193.288084,97.1816083 C193.288084,93.4417622 183.079509,87.6299794 179.597434,87.6299794 C178.440187,87.6299794 175.888043,91.1315526 173.325567,96.46679 C169.616176,104.391949 168.221279,111.602289 161.494779,129.058357 C160.792164,131.368566 157.31009,139.977464 155.925526,143.251124 C155.894528,143.313282 155.915193,143.354721 155.894528,143.416879 C154.809609,146.079318 153.383715,149.363338 151.751169,152.89599 C147.380494,153.704046 143.164807,155.651666 139.207434,159.536548 C137.82287,160.935105 138.742469,162.10575 139.6724,161.163018 C142.865162,158.852809 146.254244,157.702884 149.736319,157.195259 C148.465413,159.826619 147.111847,162.489058 145.747948,165.05826 C145.747948,164.830347 145.706618,164.654232 145.706618,164.426319 C145.706618,162.799848 144.78702,162.10575 143.857089,162.10575 C142.927158,162.10575 141.997227,162.799848 141.997227,164.426319 L141.997227,165.35869 C141.997227,167.378829 142.183213,169.202133 142.420862,170.983999 C138.701138,177.241248 135.105405,181.861668 132.718583,181.861668 C122.499675,181.861668 133.183548,138.13344 142.927158,111.374376 C144.094738,111.374376 144.549371,110.193372 144.549371,109.509633 C144.549371,107.168344 135.270726,101.833106 130.858721,102.765478 C129.236508,102.993391 128.998859,104.391949 128.544226,105.32432 C123.894571,99.4918179 115.308209,96.46679 108.34406,96.46679 C84.765144,96.46679 69.5556069,119.040542 64.2756657,142.329112 C64.1930052,142.494867 64.0896795,142.598464 64.0173515,142.784938 C56.3609202,161.401291 46.3796614,175.127873 25.9625111,174.433774 L25.7351946,174.195501 C40.1181264,111.125743 49.8204059,74.1416704 54.4700606,74.1416704 C55.627308,74.1416704 56.3195899,72.9710261 56.3195899,72.5152 C56.0922734,69.956358 53.1164944,63.1914842 48.7044888,63.1914842 C44.0651666,63.1914842 32.9266605,91.8256515 23.1727183,126.955341 C2.74523534,200.032554 -3.28898318,257.269809 2.51791889,264.718422 C3.22053338,266.11698 10.6393157,272.850774 14.824005,272.850774 C23.1727183,272.850774 40.8104084,226.315073 41.0377248,206.300163 C40.8104084,198.167811 38.72323,189.797186 34.5488734,183.498498 C45.0984232,180.028003 54.2530767,177.448442 62.4054712,165.493366 C63.6350466,180.960375 70.361547,193.050127 83.5149035,193.050127 C94.4157606,193.050127 108.34406,175.366145 114.605595,166.291062 C114.605595,171.180833 115.080893,177.686715 117.860353,181.633754 C120.18518,185.135328 127.376646,191.185383 132.480934,192.583941 C133.183548,192.832573 134.113479,192.832573 134.805761,192.832573 C138.308501,192.832573 142.348534,188.833735 146.347237,182.970154 C150.686915,190.045818 157.702727,193.27804 164.749537,193.27804 C177.272607,193.27804 189.80601,183.74713 189.80601,168.611631 C189.80601,166.985161 189.80601,165.596963 189.578693,164.177686 C193.846043,164.39524 198.258049,163.897975 202.391075,161.701722 C200.665536,169.927311 199.218977,178.018225 198.165055,185.850146 C198.165055,190.480925 207.4437,193.050127 211.845373,193.050127 C213.012953,193.050127 213.942884,192.832573 213.942884,192.345668 C213.942884,190.480925 213.705235,189.548553 216.732677,183.498498 C226.011321,164.426319 255.479799,115.787601 261.286701,112.296388 C256.874695,126.499515 245.271224,169.31609 253.63027,181.633754 C255.717448,184.897055 261.286701,189.331 265.233741,191.185383 C278.077121,198.779032 291.375133,169.512924 299.310544,146.794136 C299.320876,146.773417 299.341541,146.763057 299.351874,146.742338 C300.974087,142.318753 306.54334,125.32887 310.955346,111.840562 C307.473271,123.225855 303.298914,138.13344 301.201403,151.621749 C299.351874,164.654232 298.886909,176.288157 302.833949,181.633754 C305.158776,185.363241 314.199771,192.832573 319.769024,192.832573 C325.896236,192.832573 332.292094,184.254755 338.305648,171.968169 C341.705062,184.306553 351.097364,193.050127 362.928152,193.050127 C373.157393,193.050127 381.971071,187.227984 388.697572,178.619086 C407.110204,178.619086 419.705602,167.834655 428.074981,146.845935 C428.085313,146.804496 428.126644,146.783777 428.147309,146.742338 C428.209304,146.586943 428.302297,146.32795 428.374625,146.141476 C428.446953,145.944642 428.539946,145.778887 428.622607,145.582053 C428.632939,145.550974 428.612274,145.530255 428.622607,145.499176 C430.482469,140.547247 434.27452,128.540373 437.901251,117.424431 C432.548982,135.346685 425.367849,161.401291 422.123423,185.850146 C422.123423,191.879482 437.673935,194.200051 437.901251,192.345668 C437.901251,190.014739 437.673935,188.844095 443.005539,179.085272 C453.916728,157.910077 479.675815,115.559688 485.245068,112.296388 C480.82273,126.727428 469.239924,169.31609 477.588637,181.633754 C479.675815,184.897055 485.245068,189.331 489.192109,191.185383 C502.882758,199.100182 517.276023,163.027762 523.775207,145.582053 C525.39742,141.158468 517.276023,139.531998 515.881126,142.784938 L515.881126,142.784938 Z M13.656425,261.683035 C12.2718612,257.984628 18.2957471,195.847241 23.6376837,182.348573 C40.1181264,198.167811 16.2085688,260.066924 13.656425,261.683035 L13.656425,261.683035 Z M83.049938,181.861668 C79.1028978,181.861668 77.243036,175.821972 77.243036,166.985161 C77.243036,144.183496 89.549122,103.925763 111.598818,103.925763 C116.703105,103.925763 121.342428,109.043447 121.580077,114.627317 C122.499675,134.85978 97.4432024,181.861668 83.049938,181.861668 L83.049938,181.861668 Z M169.15121,130.446554 C169.15121,134.642227 172.633285,144.649682 174.958112,155.102603 C170.422116,154.180591 165.896452,153.154982 161.453449,152.688797 C162.435042,150.140314 163.31331,147.736868 164.046923,145.582053 C164.067588,145.509535 164.026258,145.437018 164.03659,145.3645 L164.749537,143.251124 L169.15121,130.446554 Z M149.292018,178.349735 C153.063405,171.988888 156.648805,164.39524 159.572922,157.361014 C164.997519,158.179429 170.504776,159.868058 175.888043,161.401291 C176.342676,163.960133 176.342676,166.291062 176.342676,168.383718 C176.342676,185.808707 157.35142,190.864233 149.292018,178.349735 L149.292018,178.349735 Z M359.694059,182.09994 C345.528111,182.09994 347.387973,158.593817 351.324681,151.621749 C355.747019,162.333663 364.57103,170.238102 374.531624,174.661687 C370.3676,179.313185 365.490629,182.09994 359.694059,182.09994 L359.694059,182.09994 Z M379.883893,166.529335 C359.229094,156.977706 351.324681,132.300938 372.227462,132.300938 C373.612026,132.300938 374.531624,132.54957 374.531624,132.54957 C375.699204,132.300938 375.936853,131.151013 375.936853,130.684827 L375.699204,129.752456 C373.612026,127.193614 367.350491,125.32887 364.095732,124.634772 L364.095732,124.406859 C363.858083,122.07593 372.227462,103.925763 382.198388,103.925763 C391.487365,103.925763 391.704349,143.468678 379.883893,166.529335 L379.883893,166.529335 Z" id="Fill-10"></path>
                    <path d="M30.7247907,152.102438 C45.572688,92.3063408 82.852586,11.7701553 88.6491555,11.7701553 C89.8167355,11.7701553 90.5090174,10.3715979 90.5090174,9.9157718 C90.5090174,7.11865705 82.1499715,0.830328695 77.7379659,0.830328695 C69.3892526,0.830328695 20.4128899,106.716662 9.73934925,185.84393 C9.73934925,190.485069 14.6679832,193.05427 19.0799889,193.05427" id="Fill-12"></path>
                    <path d="M46.9500191,97.1981838 L46.6297095,97.2707015 C25.7682588,158.486076 14.598755,195.076481 18.5457952,197.521366 C19.5377216,198.132588 19.5170564,199.489706 19.2794074,199.893734 C17.7398551,201.955311 13.4518402,205.374007 9.70111875,203.043078 C5.75407855,200.598192 20.002687,156.38306 23.908397,132.866577 C43.7985864,75.8883132 65.5589704,11.3267608 74.4036468,8.06346026 C75.7158827,7.23468551 85.5834832,5.41138108 89.1378859,7.62835352 C96.2363587,12.0312193 86.8130586,60.9082097 76.5011577,78.0431275 C72.0374892,84.8494401 65.8689474,90.8787763 59.0081236,94.007401 M82.2873947,16.5066029 C79.1462946,18.9307691 51.6720017,74.9663013 49.1301905,89.2419462 C71.4382004,84.4868511 83.5996306,19.2415596 82.2873947,16.5066029" id="Fill-14"></path>
                </g>
            </g>
        </g>
    </g>
</svg>